<svg width="126" height="127" viewBox="0 0 126 127" fill="none" xmlns="http://www.w3.org/2000/svg">
<path fill-rule="evenodd" clip-rule="evenodd" d="M61.8931 9.72901C61.3811 10.2408 61.3735 10.3033 61.3735 13.9338C61.3735 17.3415 61.4065 17.6611 61.8123 18.1767C62.4318 18.9646 63.7018 18.9646 64.3214 18.1767C64.7272 17.6611 64.7602 17.3415 64.7602 13.9338C64.7602 10.3033 64.7526 10.2408 64.2405 9.72901C63.5532 9.0415 62.5804 9.0415 61.8931 9.72901ZM45.2093 18.5383C44.7813 18.8748 44.6516 19.1644 44.6516 19.782C44.6516 20.6382 44.4336 20.4166 51.5791 26.8224C52.2378 27.4129 52.6609 27.6246 53.1825 27.6246C54.629 27.6246 55.3407 25.887 54.3355 24.8092C53.4456 23.8552 47.5114 18.5929 47.0468 18.3454C46.3722 17.9867 45.8395 18.0425 45.2093 18.5383ZM79.0479 18.355C78.5866 18.6195 72.0168 24.5126 71.5865 25.048C70.8093 26.0151 71.6769 27.6246 72.9755 27.6246C73.7121 27.6246 73.5197 27.7755 78.4651 23.3176C81.3481 20.7189 81.4821 20.562 81.4821 19.7875C81.4821 18.4788 80.1744 17.7092 79.0479 18.355ZM24.6488 22.8354C24.2993 22.989 23.8946 23.2581 23.7492 23.4333C23.6038 23.6086 22.7624 25.6472 21.8795 27.9637C20.9967 30.2802 20.19 32.2631 20.0867 32.3702C19.9836 32.4771 17.7391 32.6748 15.0991 32.8095L10.2993 33.0541L9.58937 33.8288C8.82461 34.6632 8.68703 35.4375 9.13047 36.4108C9.26848 36.7137 10.9225 38.1933 12.8061 39.6984C14.6898 41.2036 16.3437 42.5712 16.4818 42.7376C16.6799 42.9764 16.4856 43.9464 15.5578 47.3484C14.9116 49.718 14.3828 51.9742 14.3828 52.362C14.3828 53.3863 15.5402 54.5066 16.5982 54.5066C17.5564 54.5066 17.5213 54.5253 21.8249 51.7228C23.7642 50.4599 25.4485 49.4266 25.5679 49.4266C25.687 49.4266 27.5294 50.5689 29.6618 51.9651C33.1018 54.2177 33.6422 54.5041 34.4548 54.5051C35.1821 54.5064 35.4958 54.3815 35.9786 53.8987C36.3129 53.5645 36.6492 53.0406 36.726 52.7345C36.8198 52.3612 36.453 50.6519 35.6088 47.5306L34.352 42.8828L37.6498 40.2475C39.4633 38.7982 41.2213 37.3237 41.5563 36.9711C42.6733 35.7944 42.2663 33.8559 40.7721 33.2385C40.3576 33.0673 38.6423 32.9083 36.2906 32.8234C30.5684 32.6168 31.0831 32.8044 30.2625 30.6276C28.059 24.7827 27.468 23.4149 27.0197 23.1209C26.2871 22.6411 25.3477 22.5278 24.6488 22.8354ZM62.1041 22.8421C61.2081 23.2325 61.0251 23.5821 59.2458 28.3026L57.6737 32.4729L56.9305 32.5808C56.522 32.6403 54.473 32.7521 52.3775 32.8293C50.282 32.9066 48.3293 33.0594 48.0383 33.1689C47.2566 33.4629 46.5964 34.1584 46.4451 34.8472C46.1534 36.1754 46.571 36.6906 50.4638 39.8055C52.4937 41.4299 54.1598 42.8678 54.1657 43.0009C54.1718 43.1341 53.6435 45.2124 52.9918 47.6198C51.6699 52.5023 51.6458 53.0622 52.7185 53.9648C53.1793 54.3525 53.6084 54.5066 54.2267 54.5066C54.9741 54.5066 55.6156 54.1633 58.9738 51.9666C61.1095 50.5696 62.9604 49.4266 63.0869 49.4266C63.2135 49.4266 65.054 50.5696 67.1772 51.9666C70.5263 54.1703 71.1522 54.5066 71.9042 54.5066C72.5255 54.5066 72.9537 54.3532 73.4151 53.9648C74.4879 53.0622 74.4637 52.5023 73.1419 47.6198C72.4901 45.2124 71.9627 43.1341 71.9696 43.0009C71.9764 42.8678 73.6408 41.4346 75.6681 39.8157C79.561 36.7073 79.9826 36.1862 79.6886 34.8472C79.5372 34.1586 78.8779 33.4639 78.0941 33.167C77.8024 33.0565 75.8497 32.903 73.7549 32.826C71.66 32.7489 69.6116 32.638 69.2031 32.5794L68.4599 32.4729L66.8879 28.3026C66.0232 26.0087 65.1715 23.9047 64.9947 23.627C64.6842 23.1385 63.5767 22.5359 63.0207 22.5528C62.8714 22.5574 62.4591 22.6876 62.1041 22.8421ZM99.9678 22.6878C98.9793 22.8887 98.5098 23.699 96.8416 28.0846C94.8913 33.2116 95.7689 32.6126 89.893 32.8277C85.4085 32.9917 84.793 33.1629 84.1794 34.4175C83.7577 35.2796 83.8578 36.2599 84.43 36.8705C84.6285 37.0822 86.363 38.5233 88.2845 40.0725L91.7779 42.8894L90.5212 47.5266C89.1555 52.565 89.1373 52.881 90.155 53.8987C90.6378 54.3815 90.9515 54.5064 91.6788 54.5051C92.4914 54.5041 93.0318 54.2177 96.4719 51.9651C98.6042 50.5689 100.463 49.4266 100.602 49.4266C100.741 49.4266 101.52 49.8749 102.334 50.4227C108.98 54.8978 109.658 55.1601 111.031 53.787C111.562 53.2565 111.751 52.8819 111.751 52.362C111.751 51.9742 111.223 49.7229 110.579 47.3592C109.934 44.9953 109.458 42.9789 109.52 42.8781C109.582 42.7774 111.237 41.4001 113.198 39.8176C115.158 38.2352 116.873 36.6972 117.008 36.4C117.447 35.4363 117.307 34.6607 116.541 33.8255L115.828 33.0476L111.726 32.8666C109.469 32.7669 107.248 32.6183 106.788 32.5364L105.954 32.3872L104.248 27.9612C102.482 23.3756 102.181 22.8942 100.956 22.6849C100.665 22.6351 100.22 22.6364 99.9678 22.6878ZM26.9774 31.5405C27.6577 33.3488 28.3916 34.9397 28.6822 35.2362C29.2435 35.8092 30.6162 36.0302 34.0681 36.1032C37.4269 36.1746 37.4239 36.0848 34.1591 38.7167C32.5847 39.9861 31.2057 41.1943 31.0948 41.4015C30.7339 42.0759 30.8825 43.1262 31.8185 46.5161C32.3246 48.3496 32.7075 49.8499 32.6692 49.8499C32.6307 49.8499 31.2108 48.9327 29.5138 47.8117C27.0633 46.1929 26.2647 45.7691 25.6341 45.7526C24.9712 45.7353 24.3184 46.0701 21.6825 47.7804C19.9457 48.9071 18.5032 49.8074 18.4767 49.7809C18.4503 49.7544 18.8518 48.1676 19.3691 46.2547C19.8862 44.3416 20.3096 42.6104 20.3096 42.4074C20.3096 41.5635 19.6896 40.877 16.9697 38.7095C13.6223 36.0421 13.5345 36.2271 18.2441 36.0258C21.6573 35.8797 22.4246 35.6553 22.9161 34.659C23.0731 34.3409 23.7107 32.721 24.333 31.0594C24.9553 29.3975 25.5361 28.1117 25.6235 28.2018C25.7112 28.2918 26.3204 29.7942 26.9774 31.5405ZM64.1053 30.5351C65.5766 34.4876 65.9244 35.1791 66.621 35.5394C67.0521 35.7622 68.3514 35.9248 70.7782 36.0596C72.7198 36.1674 74.3509 36.298 74.4028 36.35C74.4548 36.4021 73.2494 37.4363 71.7241 38.6484C68.9792 40.8294 68.3586 41.537 68.3586 42.4859C68.3586 42.7547 68.696 44.2121 69.1081 45.7245C69.5204 47.2366 69.9416 48.7846 70.0443 49.1643C70.1821 49.6749 70.1662 49.8169 69.9825 49.71C69.8462 49.6304 68.4199 48.7115 66.8136 47.668C62.9697 45.1707 63.1515 45.1707 59.3156 47.6729C57.7116 48.7192 56.2875 49.638 56.1512 49.7149C55.9678 49.8182 55.9515 49.6742 56.0893 49.1643C56.192 48.7846 56.6132 47.2366 57.0256 45.7245C57.4377 44.2121 57.7751 42.7547 57.7751 42.4859C57.7751 41.537 57.1545 40.8294 54.4095 38.6484C52.8843 37.4363 51.6788 36.4021 51.7309 36.35C51.7827 36.298 53.4138 36.1674 55.3555 36.0596C57.7823 35.9248 59.0815 35.7622 59.5127 35.5394C60.2093 35.1791 60.5571 34.4876 62.0284 30.5351C62.5376 29.167 63.005 28.0479 63.0668 28.0479C63.1286 28.0479 63.596 29.167 64.1053 30.5351ZM101.912 31.3288C102.573 33.0751 103.203 34.6696 103.311 34.8722C103.727 35.6498 104.673 35.8882 107.89 36.0258C112.599 36.2271 112.511 36.0421 109.164 38.7095C106.444 40.877 105.824 41.5635 105.824 42.4074C105.824 42.6104 106.247 44.3416 106.765 46.2547C107.282 48.1676 107.685 49.7523 107.662 49.7762C107.638 49.8004 106.199 48.8999 104.466 47.7755C101.868 46.0911 101.177 45.7348 100.538 45.7516C99.9339 45.7674 99.0752 46.2215 96.6431 47.8109C94.9271 48.9323 93.4943 49.8499 93.459 49.8499C93.4236 49.8499 93.8091 48.3496 94.3152 46.5161C95.3388 42.8087 95.429 41.8905 94.8424 41.1471C94.6234 40.8694 93.2422 39.6898 91.7732 38.5256C88.7218 36.1073 88.7138 36.1744 92.0655 36.1032C95.5174 36.0302 96.8901 35.8092 97.4515 35.2362C97.741 34.9405 98.4776 33.3471 99.155 31.5506C100.372 28.3229 100.524 27.969 100.642 28.0867C100.678 28.1237 101.25 29.5825 101.912 31.3288ZM59.6801 58.8607C57.4282 59.4493 55.4649 60.6099 53.6325 62.4356C50.9308 65.1271 49.7981 67.591 49.5822 71.2472C49.382 74.6351 50.2367 77.4285 52.3422 80.2689C52.8781 80.992 53.7906 81.9445 54.3697 82.3856C54.9489 82.827 55.4281 83.2442 55.4347 83.3132C55.4412 83.382 55.042 83.5583 54.5471 83.705C52.9357 84.1823 49.5335 86.067 47.6541 87.5233C45.8604 88.9131 44.5792 90.1729 43.2584 91.8451L42.6062 92.6706L41.1937 91.2582C39.6763 89.7407 37.411 88.1631 35.5439 87.3239C34.9069 87.0373 34.3492 86.7786 34.3047 86.749C34.2603 86.7193 34.6889 86.1855 35.2573 85.5626C39.1524 81.2938 39.0328 75.006 34.9791 70.9525C28.8955 64.8687 18.5695 68.2478 17.1229 76.7956C16.6054 79.8547 17.6766 83.2895 19.881 85.6371C20.4607 86.2549 20.9135 86.7699 20.887 86.7816C20.8606 86.7934 20.3149 87.0332 19.6746 87.3148C15.3726 89.2058 11.6631 93.0349 9.71701 97.5928C8.81064 99.7161 8.70798 101.908 9.44946 103.308C10.0169 104.379 11.0577 105.418 12.1603 106.014C12.997 106.466 13.1541 106.472 25.5484 106.532L38.0898 106.593V108.774C38.0898 110.039 38.2149 111.371 38.3879 111.945C39.1058 114.331 41.0735 116.319 43.5335 117.143C44.8268 117.576 45.1685 117.584 62.9934 117.584C83.2235 117.584 82.453 117.636 84.6571 116.124C86.0205 115.19 87.289 113.487 87.7308 112C87.9183 111.368 88.0438 110.074 88.0438 108.769V106.593L100.585 106.532C112.98 106.472 113.137 106.466 113.973 106.014C115.076 105.418 116.117 104.379 116.684 103.308C117.426 101.908 117.323 99.7161 116.417 97.5928C114.477 93.0491 110.59 89.0329 106.459 87.3046C105.819 87.0368 105.273 86.8046 105.247 86.789C105.22 86.7731 105.676 86.2515 106.259 85.6301C108.434 83.314 109.518 79.8109 109.004 76.7637C107.567 68.2442 97.2286 64.8782 91.1545 70.9525C87.1269 74.9799 86.9781 81.2991 90.812 85.494C91.4157 86.1546 91.8733 86.7193 91.8289 86.749C91.7844 86.7786 91.2267 87.0373 90.5898 87.3239C88.7226 88.1631 86.4574 89.7407 84.9399 91.2582L83.5274 92.6706L82.8753 91.8451C81.5545 90.1729 80.2732 88.9131 78.4795 87.5233C76.6001 86.067 73.198 84.1823 71.5865 83.705C71.0918 83.5583 70.6924 83.382 70.699 83.3132C70.7056 83.2442 71.1848 82.827 71.7639 82.3856C72.343 81.9445 73.2555 80.992 73.7915 80.2689C75.8969 77.4285 76.7517 74.6351 76.5514 71.2472C76.3357 67.5959 75.2076 65.1382 72.5011 62.4243C70.6431 60.5612 68.7432 59.4559 66.3562 58.849C64.7712 58.4462 61.2418 58.4524 59.6801 58.8607ZM66.7338 62.5369C69.3761 63.5627 71.9199 66.2048 72.7107 68.7442C73.8874 72.522 72.9526 76.4123 70.21 79.1513C66.1887 83.1675 59.9568 83.1792 55.9503 79.178C53.7565 76.9872 52.7661 74.3858 52.9643 71.3344C53.0278 70.3554 53.271 69.1209 53.5406 68.4082C54.5611 65.7116 57.1593 63.2534 59.9489 62.3452C61.76 61.7555 64.9539 61.8458 66.7338 62.5369ZM30.8615 72.0754C32.3227 72.8541 33.3838 73.9519 34.12 75.4458C34.5141 76.2457 34.5971 76.7647 34.5962 78.4253C34.5954 80.2137 34.5302 80.56 34.0069 81.5546C33.2492 82.9954 32.0096 84.1886 30.5036 84.9269C28.8276 85.7486 26.4681 85.759 24.7292 84.9525C23.0666 84.1812 21.91 83.0575 21.1137 81.4403C19.8644 78.9026 20.2698 75.8586 22.1329 73.7863C23.8529 71.8733 25.4369 71.194 27.935 71.2982C29.2613 71.3536 29.7513 71.4838 30.8615 72.0754ZM101.66 71.9423C103.189 72.6903 104.819 74.4664 105.326 75.9356C106.564 79.5304 104.914 83.3244 101.404 84.9525C99.6655 85.759 97.3061 85.7486 95.6301 84.9269C91.4229 82.8642 90.1061 77.7069 92.8621 74.0861C93.6577 73.0408 95.3822 71.8254 96.6164 71.4402C97.8333 71.0602 100.374 71.3132 101.66 71.9423ZM68.7184 86.3388C72.7662 87.4602 75.9056 89.3542 78.8557 92.4543C81.1694 94.8862 82.5629 97.186 83.6927 100.439C84.536 102.867 84.5384 102.883 84.6186 106.651C84.6859 109.812 84.641 110.58 84.3438 111.358C83.9281 112.447 82.5897 113.682 81.4958 113.985C80.483 114.267 45.6623 114.27 44.6516 113.989C43.6161 113.701 42.3408 112.587 41.8772 111.567C41.2754 110.242 41.3051 104.584 41.927 102.125C43.8373 94.571 49.7403 88.4563 57.062 86.4476C59.6973 85.7247 60.4682 85.6405 63.7018 85.7219C66.1731 85.7842 67.1503 85.9044 68.7184 86.3388ZM30.849 89.3379C34.2048 90.015 38.3244 92.5839 40.0518 95.0765L40.6233 95.9014L39.8687 97.6468C39.4536 98.6067 38.9073 100.246 38.6548 101.289L38.1957 103.185L26.1305 103.187C14.6974 103.189 14.0313 103.168 13.4134 102.792C12.5932 102.291 12.1732 101.318 12.3567 100.34C12.5676 99.2157 14.2482 96.0294 15.3034 94.7537C16.9881 92.7164 19.6744 90.7936 22.0131 89.9505C24.6035 89.0168 28.0668 88.7766 30.849 89.3379ZM102.755 89.531C105.725 90.3406 108.752 92.2877 110.755 94.6773C111.868 96.0046 113.558 99.1712 113.777 100.34C113.96 101.318 113.54 102.291 112.72 102.792C112.103 103.168 111.434 103.189 100 103.19L87.9323 103.191L87.4818 101.305C87.2342 100.268 86.6891 98.6279 86.2709 97.6603L85.5103 95.9014L86.0818 95.0765C87.7559 92.6609 91.8678 90.0555 95.1347 89.3402C96.9805 88.9362 100.936 89.0352 102.755 89.531Z" fill="url(#paint0_linear_78_307)"/>
<defs>
<linearGradient id="paint0_linear_78_307" x1="63.0672" y1="9.21338" x2="63.0672" y2="117.584" gradientUnits="userSpaceOnUse">
<stop stop-color="#FDC103"/>
<stop offset="0.425" stop-color="#FBE295"/>
<stop offset="0.75" stop-color="#FBDD7F"/>
<stop offset="1" stop-color="#FBCC36"/>
</linearGradient>
</defs>
</svg>
