<svg width="127" height="127" viewBox="0 0 127 127" fill="none" xmlns="http://www.w3.org/2000/svg">
<path d="M12.9209 62.4046C12.9802 62.4046 13.0394 62.4037 13.1012 62.4037C13.2985 62.4029 13.4958 62.4029 13.6922 62.4037C13.8345 62.4029 13.9767 62.4029 14.119 62.402C14.5042 62.4012 14.8886 62.4012 15.2738 62.4012C15.5956 62.4012 15.9173 62.4012 16.2399 62.4004C16.9994 62.3995 17.7589 62.3995 18.5192 62.4004C19.3015 62.4004 20.0839 62.3995 20.8662 62.3978C21.5393 62.3961 22.2124 62.3953 22.8856 62.3961C23.2869 62.3961 23.6882 62.3961 24.0896 62.3944C24.4672 62.3936 24.8448 62.3936 25.2224 62.3944C25.3604 62.3953 25.4984 62.3944 25.6364 62.3944C26.9539 62.3876 27.9979 62.6273 29.0088 63.5451C29.6235 64.208 30.0875 64.9836 30.0993 65.9065C30.1019 66.0564 30.1019 66.0563 30.1044 66.2096C30.1061 66.3696 30.1061 66.3696 30.1078 66.5322C30.1103 66.6973 30.1103 66.6973 30.1129 66.8666C30.1171 67.1579 30.1205 67.4492 30.1239 67.7404C30.1273 68.0384 30.1315 68.3365 30.1357 68.6345C30.1434 69.2179 30.151 69.8021 30.1578 70.3855C30.2103 70.388 30.2628 70.3897 30.3169 70.3922C30.5549 70.4016 30.7928 70.4126 31.0307 70.4227C31.1128 70.4261 31.1958 70.4295 31.2813 70.4329C31.3601 70.4363 31.4396 70.4397 31.5218 70.443C31.5946 70.4464 31.6683 70.4498 31.7436 70.4532C31.9358 70.4701 31.9358 70.4701 32.1898 70.5548C32.4794 70.5938 32.7698 70.6276 33.0602 70.6606C33.5267 70.7157 33.5267 70.7157 33.7138 70.8088C33.8197 70.8173 33.9264 70.8266 34.0364 70.8351C34.4759 70.8799 34.8747 71.0086 35.2938 71.1441C35.5613 71.2271 35.8272 71.2957 36.0998 71.3592C36.491 71.454 36.8508 71.581 37.2217 71.7376C37.4638 71.835 37.7085 71.9146 37.9575 71.9942C38.3122 72.1102 38.6365 72.2431 38.965 72.4184C39.1496 72.5107 39.3367 72.5826 39.5289 72.6554C40.3002 72.9577 41.0081 73.387 41.7125 73.8179C41.947 73.9534 42.1858 74.0719 42.4288 74.1905C42.7641 74.3539 43.0757 74.53 43.3873 74.7357C43.9181 75.082 44.4795 75.3547 45.0493 75.6324C45.3516 75.7797 45.6522 75.9296 45.9536 76.0794C46.0078 76.1065 46.0619 76.1328 46.1178 76.1607C46.382 76.292 46.6402 76.4283 46.8942 76.5764C47.1195 76.7034 47.3269 76.805 47.5674 76.8948C47.9069 77.0252 48.2337 77.1717 48.5622 77.3283C48.9974 77.5315 49.4318 77.6966 49.8898 77.8397C50.1396 77.921 50.1396 77.921 50.4486 78.0514C50.8788 78.2148 51.3131 78.2393 51.7695 78.2707C51.9337 78.2825 52.098 78.2952 52.2622 78.3079C52.3342 78.313 52.4062 78.3181 52.4807 78.3232C52.6797 78.3443 52.6797 78.3443 52.849 78.3875C53.0437 78.4358 53.2249 78.4459 53.4247 78.4527C53.5026 78.4561 53.5797 78.4595 53.6593 78.4629C53.7389 78.4654 53.8193 78.4679 53.9014 78.4713C54.0606 78.4773 54.2189 78.4832 54.3773 78.49C54.4475 78.4925 54.5178 78.495 54.5898 78.4976C54.7964 78.5137 54.7964 78.5137 55.0004 78.5552C55.251 78.6043 55.4949 78.6237 55.7489 78.6407C55.8488 78.6474 55.9496 78.6551 56.0529 78.6618C56.2628 78.6762 56.4737 78.6898 56.6836 78.7042C56.7836 78.7109 56.8843 78.7186 56.9868 78.7253C57.0782 78.7313 57.1696 78.738 57.2636 78.744C57.4677 78.7643 57.6463 78.8024 57.8445 78.8523C57.9799 78.8633 58.1154 78.871 58.2509 78.876C58.3288 78.8794 58.4058 78.8828 58.4854 78.8862C58.565 78.8887 58.6454 78.8913 58.7275 78.8947C58.8867 78.9006 59.0451 78.9065 59.2034 78.9133C59.2737 78.9158 59.3439 78.9184 59.4159 78.9209C59.6225 78.937 59.6225 78.937 59.8274 78.9785C60.0763 79.0276 60.3185 79.0471 60.5716 79.064C60.6715 79.0708 60.7715 79.0784 60.8747 79.0852C60.978 79.092 61.0822 79.0996 61.1889 79.1063C61.3938 79.1199 61.5995 79.1343 61.8053 79.1487C61.8959 79.1546 61.9865 79.1614 62.0804 79.1673C62.3107 79.1893 62.5283 79.23 62.7552 79.2757C62.8873 79.2867 63.0194 79.2943 63.1515 79.2994C63.2252 79.3028 63.298 79.3062 63.3733 79.3096C63.4487 79.3121 63.524 79.3146 63.6019 79.318C63.7518 79.3239 63.9017 79.3299 64.0515 79.3366C64.1176 79.3392 64.1836 79.3417 64.2513 79.3443C64.4486 79.3604 64.4486 79.3604 64.6518 79.4018C64.9016 79.451 65.1446 79.4704 65.3978 79.4874C65.4977 79.4941 65.5976 79.5018 65.7009 79.5085C65.8042 79.5153 65.9083 79.5229 66.015 79.5297C66.2199 79.5432 66.4256 79.5576 66.6314 79.572C66.722 79.578 66.8126 79.5847 66.9066 79.5907C67.1369 79.6127 67.3545 79.6533 67.5814 79.699C67.7134 79.71 67.8455 79.7177 67.9776 79.7227C68.0513 79.7261 68.1241 79.7295 68.1994 79.7329C68.2748 79.7354 68.3502 79.738 68.4281 79.7414C68.5779 79.7473 68.7278 79.7532 68.8776 79.76C68.9437 79.7625 69.0097 79.7651 69.0775 79.7676C69.2747 79.7837 69.2747 79.7837 69.4779 79.8252C69.7277 79.8743 69.9707 79.8938 70.2239 79.9107C70.3238 79.9175 70.4237 79.9251 70.527 79.9319C70.6303 79.9386 70.7344 79.9463 70.8411 79.953C71.046 79.9666 71.2518 79.981 71.4575 79.9954C71.5481 80.0013 71.6387 80.0081 71.7327 80.014C71.963 80.036 72.1806 80.0758 72.4075 80.1224C72.5726 80.1317 72.7385 80.141 72.9045 80.1469C73.5869 80.1732 74.2075 80.2587 74.8629 80.4611C75.0077 80.5025 75.0077 80.5025 75.1567 80.5449C76.8848 81.0724 78.4181 82.0554 79.6043 83.4245C79.6043 83.4803 79.6043 83.5362 79.6043 83.5938C79.6882 83.6217 79.772 83.6497 79.8583 83.6785C80.0014 83.8664 80.1318 84.0518 80.2605 84.25C80.2978 84.3075 80.335 84.3643 80.3731 84.4235C81.478 86.1364 81.92 87.856 82.1444 89.8593C83.0656 90.0371 83.9715 90.0642 84.9063 90.082C85.0545 90.0845 85.2018 90.0879 85.3499 90.0913C86.0332 90.1074 86.0332 90.1074 86.7165 90.1133C86.7165 90.0574 86.7165 90.0015 86.7165 89.9439C86.8003 89.9439 86.8842 89.9439 86.9705 89.9439C86.9705 89.8881 86.9705 89.8322 86.9705 89.7746C87.128 89.6468 87.128 89.6468 87.3354 89.5105C87.4032 89.4647 87.4709 89.419 87.5403 89.3716C87.7325 89.2666 87.7325 89.2666 87.9865 89.2666C87.9865 89.2107 87.9865 89.1548 87.9865 89.0973C88.1779 88.9542 88.1779 88.9542 88.4311 88.7958C88.5132 88.7433 88.5953 88.6909 88.6808 88.6367C88.8806 88.5249 89.033 88.4589 89.2566 88.4199C89.2566 88.364 89.2566 88.3081 89.2566 88.2506C89.4149 88.1346 89.4149 88.1346 89.6427 87.9966C90.0338 87.7544 90.4191 87.5063 90.8018 87.2506C90.8814 87.1964 90.8814 87.1964 90.9635 87.1414C91.0736 87.0686 91.1836 86.9949 91.2937 86.9213C91.5596 86.7426 91.8263 86.5657 92.093 86.3879C92.198 86.3176 92.3029 86.2473 92.4079 86.1779C92.6264 86.0322 92.8448 85.8866 93.0633 85.741C93.1183 85.7046 93.1734 85.6673 93.2301 85.6301C93.3385 85.5573 93.446 85.4853 93.5544 85.4133C93.7838 85.2609 94.0133 85.1077 94.241 84.9519C94.3088 84.9053 94.3773 84.8587 94.4476 84.8113C94.5043 84.7715 94.5619 84.7317 94.6212 84.6911C94.76 84.6098 94.76 84.6098 94.9294 84.6098C94.9294 84.5539 94.9294 84.4981 94.9294 84.4405C95.0132 84.4405 95.097 84.4405 95.1834 84.4405C95.1834 84.3846 95.1834 84.3287 95.1834 84.2711C95.362 84.1433 95.362 84.1433 95.5957 84.007C95.6728 83.9613 95.749 83.9155 95.8277 83.8681C96.0301 83.7631 96.0301 83.7631 96.1994 83.7631C96.1994 83.7072 96.1994 83.6514 96.1994 83.5938C96.2832 83.5938 96.367 83.5938 96.4534 83.5938C96.4534 83.5379 96.4534 83.482 96.4534 83.4245C96.6109 83.2966 96.6109 83.2966 96.8183 83.1603C96.8861 83.1146 96.9538 83.0688 97.0232 83.0214C97.2154 82.9164 97.2154 82.9164 97.4694 82.9164C97.4694 82.8606 97.4694 82.8047 97.4694 82.7471C97.5533 82.7471 97.6371 82.7471 97.7234 82.7471C97.7234 82.6912 97.7234 82.6353 97.7234 82.5778C97.9148 82.4347 97.9148 82.4347 98.168 82.2763C98.2501 82.2239 98.3322 82.1714 98.4177 82.1172C98.6176 82.0054 98.7699 81.9394 98.9935 81.9004C98.9935 81.8445 98.9935 81.7887 98.9935 81.7311C99.1848 81.588 99.1848 81.588 99.438 81.4297C99.5201 81.3772 99.6023 81.3247 99.6878 81.2705C99.8876 81.1587 100.04 81.0927 100.264 81.0537C100.264 80.9978 100.264 80.942 100.264 80.8844C100.455 80.7413 100.455 80.7413 100.708 80.583C100.79 80.5305 100.872 80.478 100.958 80.4238C101.158 80.312 101.31 80.246 101.534 80.207C101.534 80.1512 101.534 80.0953 101.534 80.0377C101.701 79.9158 101.701 79.9158 101.936 79.7735C102.365 79.5077 102.787 79.2325 103.207 78.9514C103.402 78.8202 103.598 78.6898 103.794 78.5602C104.367 78.1818 104.93 77.794 105.482 77.385C105.65 77.2665 105.814 77.1624 105.994 77.0641C106.282 76.9007 106.532 76.7153 106.795 76.5155C107.29 76.1429 107.29 76.1429 107.63 76.1429C107.63 76.0871 107.63 76.0312 107.63 75.9736C109.322 75.226 111.243 74.8788 113.036 75.5579C113.096 75.5833 113.156 75.6087 113.218 75.6349C113.294 75.6671 113.37 75.7001 113.449 75.7331C113.896 75.9304 114.323 76.1455 114.742 76.3969C114.742 76.4528 114.742 76.5087 114.742 76.5663C114.802 76.5858 114.863 76.6052 114.926 76.6255C115.213 76.7576 115.379 76.9227 115.599 77.1488C115.671 77.2216 115.743 77.2944 115.816 77.3698C116.266 77.8592 116.266 77.8592 116.266 78.0903C116.322 78.0903 116.378 78.0903 116.435 78.0903C117.478 80.1444 117.478 80.1444 117.477 81.1435C117.477 81.2383 117.477 81.2383 117.478 81.3357C117.478 81.4686 117.478 81.6015 117.478 81.7345C117.478 81.9368 117.479 82.1383 117.482 82.3407C117.482 82.4711 117.482 82.6006 117.482 82.731C117.483 82.7903 117.483 82.8496 117.484 82.9114C117.48 83.3576 117.369 83.6903 117.197 84.1018C117.161 84.2161 117.161 84.2161 117.124 84.3329C116.811 85.3287 116.11 86.2812 115.324 86.9645C115.268 87.0144 115.212 87.0635 115.153 87.1143C114.996 87.2346 114.996 87.2346 114.742 87.3192C114.742 87.3751 114.742 87.431 114.742 87.4886C114.686 87.4886 114.63 87.4886 114.573 87.4886C114.545 87.5724 114.517 87.6562 114.488 87.7426C114.432 87.7426 114.376 87.7426 114.319 87.7426C114.319 87.7984 114.319 87.8543 114.319 87.9119C113.855 88.3352 113.855 88.3352 113.641 88.3352C113.641 88.3911 113.641 88.447 113.641 88.5046C113.517 88.6324 113.517 88.6324 113.355 88.7696C113.275 88.8373 113.275 88.8373 113.194 88.9076C113.049 89.0126 113.048 89.0126 112.879 89.0126C112.879 89.0685 112.879 89.1244 112.879 89.1819C112.415 89.6053 112.415 89.6053 112.202 89.6053C112.174 89.6891 112.146 89.7729 112.117 89.8593C112.061 89.8593 112.005 89.8593 111.948 89.8593C111.948 89.9152 111.948 89.971 111.948 90.0286C111.82 90.1573 111.82 90.1573 111.646 90.3038C111.585 90.3563 111.523 90.4079 111.459 90.4613C111.397 90.5146 111.335 90.5671 111.27 90.6213C111.214 90.6712 111.157 90.7212 111.099 90.7729C111.047 90.8194 110.995 90.8652 110.942 90.9126C110.895 90.954 110.848 90.9964 110.8 91.0387C110.678 91.1293 110.678 91.1293 110.508 91.1293C110.508 91.1852 110.508 91.2411 110.508 91.2986C110.453 91.2986 110.397 91.2986 110.339 91.2986C110.339 91.3545 110.339 91.4104 110.339 91.468C110.199 91.6111 110.199 91.6111 110.016 91.7694C109.956 91.8219 109.896 91.8744 109.834 91.9286C109.662 92.0607 109.662 92.0607 109.408 92.1453C109.408 92.2012 109.408 92.2571 109.408 92.3147C109.283 92.4425 109.283 92.4425 109.122 92.5797C109.042 92.6474 109.042 92.6474 108.961 92.7177C108.815 92.8227 108.815 92.8227 108.646 92.8227C108.646 92.8786 108.646 92.9344 108.646 92.992C108.182 93.4154 108.182 93.4154 107.968 93.4154C107.94 93.4992 107.912 93.583 107.884 93.6694C107.828 93.6694 107.772 93.6694 107.714 93.6694C107.714 93.7253 107.714 93.7811 107.714 93.8387C107.587 93.9674 107.587 93.9674 107.412 94.1139C107.351 94.1664 107.289 94.218 107.226 94.2714C107.164 94.3247 107.101 94.3772 107.037 94.4314C106.98 94.4813 106.924 94.5313 106.866 94.583C106.813 94.6295 106.762 94.6752 106.708 94.7227C106.662 94.7641 106.615 94.8065 106.566 94.8488C106.444 94.9394 106.444 94.9394 106.275 94.9394C106.275 94.9953 106.275 95.0512 106.275 95.1087C106.219 95.1087 106.163 95.1087 106.106 95.1087C106.106 95.1646 106.106 95.2205 106.106 95.2781C105.966 95.4212 105.966 95.4212 105.782 95.5795C105.723 95.632 105.663 95.6845 105.601 95.7387C105.428 95.8708 105.428 95.8708 105.174 95.9554C105.174 96.0113 105.174 96.0672 105.174 96.1248C105.05 96.2526 105.05 96.2526 104.888 96.3898C104.809 96.4575 104.809 96.4575 104.727 96.5278C104.582 96.6328 104.582 96.6328 104.412 96.6328C104.412 96.6887 104.412 96.7445 104.412 96.8021C103.948 97.2255 103.948 97.2255 103.735 97.2255C103.707 97.3093 103.679 97.3931 103.65 97.4795C103.594 97.4795 103.538 97.4795 103.481 97.4795C103.481 97.5354 103.481 97.5912 103.481 97.6488C103.353 97.7775 103.353 97.7775 103.179 97.924C103.118 97.9765 103.056 98.0281 102.992 98.0815C102.931 98.1348 102.868 98.1873 102.804 98.2415C102.747 98.2914 102.69 98.3414 102.633 98.3931C102.58 98.4396 102.528 98.4853 102.475 98.5328C102.428 98.5742 102.381 98.6166 102.333 98.6589C102.211 98.7495 102.211 98.7495 102.042 98.7495C102.042 98.8054 102.042 98.8613 102.042 98.9188C101.986 98.9188 101.93 98.9188 101.872 98.9188C101.872 98.9747 101.872 99.0306 101.872 99.0882C101.733 99.2313 101.733 99.2313 101.549 99.3896C101.49 99.4421 101.429 99.4946 101.368 99.5488C101.195 99.6809 101.195 99.6809 100.941 99.7655C100.941 99.8214 100.941 99.8773 100.941 99.9349C100.816 100.063 100.816 100.063 100.655 100.2C100.575 100.268 100.575 100.268 100.494 100.338C100.348 100.443 100.348 100.443 100.179 100.443C100.179 100.499 100.179 100.555 100.179 100.612C99.7148 101.036 99.7148 101.036 99.5015 101.036C99.4735 101.119 99.4456 101.203 99.4168 101.29C99.3609 101.29 99.3051 101.29 99.2475 101.29C99.2475 101.345 99.2475 101.401 99.2475 101.459C99.1196 101.588 99.1196 101.588 98.9452 101.734C98.8843 101.787 98.8224 101.838 98.7589 101.892C98.6971 101.945 98.6345 101.997 98.5701 102.052C98.5134 102.102 98.4567 102.151 98.3991 102.203C98.3466 102.25 98.295 102.295 98.2416 102.343C98.1951 102.384 98.1476 102.427 98.0994 102.469C97.9775 102.56 97.9774 102.56 97.8081 102.56C97.8081 102.615 97.8081 102.671 97.8081 102.729C97.6684 102.866 97.6684 102.866 97.4847 103.02C97.2298 103.234 97.2298 103.234 96.9919 103.467C96.8768 103.576 96.8768 103.576 96.7074 103.576C96.7074 103.632 96.7074 103.687 96.7074 103.745C96.583 103.873 96.583 103.873 96.4212 104.01C96.3416 104.078 96.3416 104.078 96.2604 104.148C96.1147 104.253 96.1147 104.253 95.9454 104.253C95.9454 104.309 95.9454 104.365 95.9454 104.422C95.4814 104.846 95.4814 104.846 95.2681 104.846C95.2681 104.902 95.2681 104.957 95.2681 105.015C95.1343 105.15 95.1343 105.15 94.9556 105.301C94.8938 105.353 94.832 105.405 94.7685 105.46C94.7101 105.509 94.6508 105.557 94.5907 105.608C94.4696 105.71 94.4696 105.71 94.3469 105.814C94.1674 105.946 94.1674 105.946 93.998 105.946C93.998 106.002 93.998 106.058 93.998 106.116C93.8228 106.258 93.6475 106.389 93.4629 106.518C93.4087 106.556 93.3545 106.594 93.2987 106.634C92.8431 106.95 92.3741 107.217 91.8813 107.47C91.7611 107.535 91.6408 107.6 91.5215 107.664C91.3919 107.734 91.2632 107.803 91.1345 107.873C91.0744 107.906 91.0134 107.939 90.9508 107.972C90.6172 108.15 90.2955 108.287 89.9339 108.402C89.8399 108.443 89.746 108.486 89.6494 108.528C89.3133 108.667 88.9848 108.755 88.6317 108.836C88.2346 108.898 88.2346 108.898 87.9019 109.079C87.7859 109.095 87.669 109.106 87.5522 109.116C87.3075 109.141 87.1018 109.175 86.8647 109.243C86.2314 109.423 85.5769 109.497 84.9224 109.545C84.5388 109.574 84.1748 109.63 83.7997 109.711C83.2028 109.837 82.6101 109.927 82.0013 109.968C81.6228 109.994 81.2723 110.044 80.904 110.134C80.2885 110.275 79.6619 110.35 79.0328 110.391C78.656 110.417 78.3072 110.468 77.9414 110.557C77.2675 110.712 76.58 110.788 75.8908 110.828C75.6655 110.853 75.4547 110.89 75.2337 110.937C74.6605 111.055 74.0822 111.116 73.5014 111.184C73.0239 111.241 72.5557 111.313 72.0857 111.411C71.4854 111.536 70.8801 111.617 70.2696 111.661C69.9055 111.689 69.5685 111.746 69.2155 111.833C68.9098 111.896 68.6016 111.915 68.2909 111.937C68.0767 111.952 68.0767 111.952 67.8354 112.042C67.6762 112.058 67.5179 112.07 67.3587 112.08C66.9802 112.109 66.628 112.162 66.2597 112.251C65.6585 112.386 65.0464 112.463 64.4325 112.508C64.0507 112.537 63.6891 112.595 63.3158 112.674C62.7053 112.799 62.0906 112.886 61.4691 112.932C61.0873 112.96 60.7257 113.018 60.3523 113.097C59.7402 113.224 59.1238 113.31 58.5006 113.355C58.1366 113.382 57.7996 113.44 57.4465 113.527C57.1409 113.589 56.8327 113.609 56.5219 113.63C56.3077 113.645 56.3077 113.645 56.0664 113.736C55.8259 113.759 55.5863 113.773 55.3459 113.788C55.1139 113.814 54.9115 113.853 54.6855 113.907C54.1004 114.027 53.5103 114.019 52.9159 114.017C52.7186 114.016 52.5213 114.019 52.3241 114.02C51.2919 114.025 50.1023 114.013 49.1896 113.478C49.0169 113.385 48.8518 113.337 48.663 113.286C48.2549 113.172 47.8722 113.016 47.4827 112.852C46.9772 112.639 46.4717 112.45 45.9493 112.282C45.5751 112.159 45.222 111.993 44.863 111.831C44.6268 111.734 44.4041 111.658 44.1594 111.588C43.7319 111.463 43.3212 111.307 42.9063 111.145C42.5152 110.992 42.1215 110.845 41.7269 110.7C41.268 110.529 40.8218 110.339 40.3756 110.137C40.1444 110.043 39.9319 109.971 39.6932 109.905C39.219 109.768 38.7728 109.577 38.319 109.386C37.8821 109.204 37.4418 109.045 36.9897 108.901C36.6248 108.78 36.2708 108.633 35.9152 108.486C35.7688 108.428 35.6223 108.37 35.4758 108.312C35.2387 108.217 35.005 108.12 34.7722 108.016C34.4581 107.887 34.1448 107.793 33.818 107.703C33.6292 107.64 33.6292 107.64 33.3752 107.47C33.2592 107.433 33.1432 107.4 33.0255 107.37C32.6064 107.25 32.2135 107.09 31.8139 106.92C31.2703 106.69 30.7327 106.506 30.1578 106.37C30.1578 106.42 30.1586 106.47 30.1586 106.522C30.1637 107.983 29.969 108.995 28.9148 110.085C28.0715 110.855 27.2138 111.121 26.0801 111.122C25.9938 111.123 25.9938 111.123 25.9048 111.123C25.7118 111.124 25.5188 111.124 25.3266 111.124C25.1877 111.124 25.0488 111.124 24.91 111.125C24.5341 111.125 24.1573 111.126 23.7814 111.126C23.546 111.126 23.3106 111.126 23.0752 111.126C22.2539 111.126 21.4318 111.127 20.6105 111.127C19.846 111.127 19.0814 111.128 18.3168 111.129C17.659 111.13 17.0019 111.131 16.344 111.131C15.952 111.131 15.5592 111.131 15.1672 111.131C14.798 111.132 14.4288 111.132 14.0597 111.132C13.9251 111.131 13.7904 111.132 13.655 111.132C12.2148 111.137 11.076 110.962 10.0066 109.926C9.78899 109.655 9.59764 109.374 9.41391 109.079C9.33009 108.954 9.33009 108.954 9.24457 108.825C9.23357 108.597 9.23357 108.597 9.24457 108.402C9.18869 108.402 9.13281 108.402 9.07524 108.402C9.06507 104.302 9.05491 100.202 9.04983 96.1019C9.04983 96.0409 9.04983 95.98 9.04983 95.9182C9.04814 94.5982 9.04645 93.2791 9.04475 91.9591C9.04391 91.3122 9.04306 90.6653 9.04221 90.0176C9.04221 89.9533 9.04221 89.8889 9.04221 89.8229C9.03967 87.7366 9.03544 85.6504 9.02951 83.565C9.02443 81.4203 9.0202 79.2765 9.01935 77.1319C9.01935 76.8288 9.01851 76.5256 9.01851 76.2225C9.01851 76.1633 9.01851 76.1031 9.01851 76.0422C9.01766 75.0829 9.01512 74.1236 9.01173 73.1651C9.00835 72.1999 9.00665 71.2355 9.0075 70.2703C9.00835 69.7479 9.0075 69.2255 9.00411 68.7031C9.00157 68.2247 9.00157 67.7455 9.00327 67.2671C9.00327 67.0944 9.00242 66.9217 9.00073 66.7489C8.98887 65.5636 9.11926 64.6322 9.92192 63.6966C9.9778 63.6966 10.0337 63.6966 10.0913 63.6966C10.0913 63.6408 10.0913 63.5849 10.0913 63.5273C10.9346 62.8093 11.8041 62.4063 12.9209 62.4046ZM12.4053 66.0276C12.2469 66.3205 12.2571 66.594 12.2605 66.9183C12.2596 66.9886 12.2596 67.058 12.2588 67.1291C12.2579 67.3645 12.2588 67.599 12.2596 67.8335C12.2596 68.0029 12.2596 68.1722 12.2588 68.3416C12.2579 68.8081 12.2579 69.2746 12.2588 69.742C12.2596 70.2441 12.2588 70.747 12.2579 71.2499C12.2571 72.1779 12.2571 73.1067 12.2579 74.0347C12.2588 74.8924 12.2588 75.7501 12.2579 76.6078C12.2579 76.6653 12.2579 76.7221 12.2579 76.7805C12.2579 77.0108 12.2579 77.2419 12.2579 77.4722C12.2571 79.6381 12.2579 81.8039 12.2596 83.9689C12.2605 85.8942 12.2605 87.8188 12.2588 89.7433C12.2579 91.9049 12.2571 94.0656 12.2579 96.2272C12.2579 96.4575 12.2579 96.6878 12.2579 96.9181C12.2579 96.9748 12.2579 97.0316 12.2579 97.09C12.2588 97.9477 12.2579 98.8045 12.2579 99.6614C12.2571 100.636 12.2571 101.61 12.2588 102.585C12.2588 103.083 12.2596 103.581 12.2588 104.078C12.2579 104.533 12.2579 104.988 12.2596 105.443C12.2596 105.608 12.2596 105.773 12.2588 105.938C12.2579 106.161 12.2588 106.385 12.2605 106.608C12.2596 106.674 12.2588 106.738 12.2588 106.805C12.2622 107.18 12.3053 107.431 12.5467 107.724C12.8032 107.788 12.8032 107.788 13.1055 107.778C13.1622 107.779 13.2198 107.779 13.2782 107.779C13.4704 107.781 13.6617 107.779 13.8531 107.778C13.9911 107.779 14.1283 107.779 14.2654 107.779C14.6388 107.781 15.0114 107.78 15.3848 107.779C15.7751 107.777 16.1646 107.778 16.5549 107.779C17.2102 107.779 17.8655 107.778 18.52 107.775C19.2778 107.773 20.0365 107.773 20.7942 107.774C21.5224 107.775 22.2505 107.774 22.9795 107.773C23.2894 107.773 23.6002 107.773 23.9101 107.774C24.2758 107.774 24.6407 107.773 25.0057 107.77C25.1403 107.77 25.2749 107.77 25.4087 107.77C25.5916 107.771 25.7745 107.77 25.9573 107.768C26.0598 107.768 26.1622 107.768 26.2681 107.768C26.5212 107.749 26.5212 107.749 26.6576 107.578C26.7879 107.357 26.8023 107.236 26.8023 106.981C26.8032 106.9 26.804 106.818 26.8049 106.734C26.804 106.644 26.804 106.555 26.8032 106.463C26.804 106.368 26.804 106.272 26.8049 106.174C26.8057 105.854 26.8049 105.534 26.8049 105.214C26.8049 104.985 26.8057 104.756 26.8066 104.526C26.8074 104.033 26.8083 103.539 26.8083 103.046C26.8074 102.332 26.8091 101.617 26.8108 100.903C26.8133 99.7444 26.8159 98.5852 26.8167 97.4261C26.8167 97.322 26.8167 97.322 26.8167 97.2162C26.8167 96.9351 26.8176 96.654 26.8176 96.3729C26.8184 95.5981 26.8193 94.8243 26.8201 94.0504C26.8201 93.981 26.8201 93.9115 26.821 93.8404C26.8218 92.6855 26.8244 91.5306 26.8269 90.3758C26.8286 89.6637 26.8294 88.9508 26.8294 88.2387C26.8294 87.7502 26.8303 87.2625 26.8311 86.7748C26.832 86.4929 26.832 86.2109 26.832 85.929C26.832 85.6242 26.8328 85.3193 26.8337 85.0137C26.8328 84.9248 26.8328 84.835 26.8328 84.7427C26.8328 84.62 26.8328 84.62 26.8337 84.4955C26.8337 84.4252 26.8337 84.355 26.8337 84.2822C26.8557 84.1018 26.8557 84.1018 27.025 83.8478C27.025 83.764 27.025 83.6802 27.025 83.5938C27.0809 83.5938 27.1368 83.5938 27.1944 83.5938C27.2604 83.5277 27.3264 83.4609 27.395 83.3931C27.7201 83.068 27.9471 82.9757 28.406 82.9698C28.864 82.9757 29.1062 83.0849 29.4804 83.3398C29.5363 83.3398 29.5922 83.3398 29.6497 83.3398C29.6735 83.3906 29.698 83.4414 29.7234 83.493C29.8225 83.6945 29.8225 83.6945 29.9884 83.9325C30.0054 84.1822 30.0121 84.4235 30.0113 84.6733C30.0121 84.7504 30.013 84.8266 30.013 84.9053C30.0147 85.1636 30.0147 85.421 30.0147 85.6792C30.0155 85.8638 30.0164 86.0475 30.0172 86.2321C30.0198 86.7333 30.0214 87.2354 30.0223 87.7366C30.024 88.2607 30.0257 88.784 30.0282 89.3081C30.0325 90.3004 30.035 91.2927 30.0375 92.285C30.0409 93.4145 30.0452 94.544 30.0494 95.6735C30.0587 97.9968 30.0663 100.321 30.0731 102.644C30.1662 102.679 30.2594 102.714 30.355 102.749C30.4787 102.795 30.6014 102.841 30.725 102.887C30.786 102.91 30.8478 102.932 30.9105 102.956C31.222 103.072 31.5285 103.192 31.83 103.333C32.1949 103.501 32.5725 103.621 32.9552 103.746C33.2456 103.843 33.5284 103.956 33.8121 104.072C34.177 104.218 34.547 104.355 34.9161 104.491C35.1854 104.591 35.4496 104.695 35.7137 104.808C35.9728 104.918 36.2285 105.01 36.4969 105.095C36.7966 105.192 37.0845 105.294 37.3698 105.428C37.7983 105.626 38.2428 105.774 38.689 105.928C39.0708 106.061 39.4383 106.209 39.8049 106.381C40.0767 106.496 40.3578 106.571 40.6423 106.648C40.826 106.708 40.826 106.708 41.08 106.878C41.2197 106.923 41.3611 106.966 41.5034 107.005C41.7769 107.08 41.9403 107.141 42.1807 107.301C42.3027 107.342 42.4263 107.379 42.5507 107.412C43.2332 107.609 43.8944 107.868 44.5404 108.164C44.8486 108.304 45.156 108.395 45.4828 108.486C45.8367 108.62 46.1856 108.766 46.5361 108.911C46.9162 109.066 47.2981 109.206 47.6893 109.333C48.0576 109.453 48.4039 109.594 48.7544 109.756C49.0745 109.893 49.4047 109.994 49.7349 110.1C49.9703 110.18 49.9703 110.18 50.2666 110.312C51.0566 110.637 51.7559 110.712 52.6051 110.714C52.6907 110.715 52.777 110.715 52.8651 110.716C53.4163 110.711 53.9209 110.64 54.4577 110.518C54.997 110.424 55.5347 110.347 56.0817 110.307C56.4652 110.278 56.8293 110.221 57.2044 110.141C57.7996 110.016 58.3906 109.924 58.9976 109.883C59.399 109.856 59.7783 109.802 60.1712 109.717C60.7494 109.594 61.3286 109.503 61.9187 109.46C62.3023 109.432 62.6655 109.375 63.0406 109.294C63.651 109.169 64.2657 109.082 64.8872 109.037C65.2708 109.008 65.6348 108.951 66.0108 108.871C66.6221 108.741 67.2266 108.652 67.8506 108.613C68.2469 108.589 68.6143 108.542 68.9996 108.447C69.8996 108.232 70.8318 108.15 71.7488 108.04C71.935 108.018 72.1205 107.995 72.3067 107.973C72.4168 107.96 72.5277 107.947 72.642 107.934C72.9155 107.902 72.9155 107.902 73.1695 107.809C73.3261 107.794 73.4828 107.782 73.6403 107.772C74.0407 107.741 74.4226 107.685 74.8155 107.601C75.4124 107.475 76.0051 107.384 76.6138 107.343C76.9923 107.318 77.3428 107.267 77.7111 107.177C78.3267 107.037 78.9532 106.962 79.5832 106.92C79.9591 106.895 80.3079 106.844 80.6737 106.754C81.274 106.617 81.8853 106.542 82.4983 106.497C82.8802 106.468 83.2417 106.411 83.6151 106.331C84.2052 106.21 84.7971 106.121 85.3982 106.089C85.9079 106.051 86.3982 105.946 86.896 105.835C87.0129 105.81 87.0129 105.81 87.1314 105.784C87.5971 105.676 88.0314 105.535 88.4717 105.349C88.6664 105.268 88.8629 105.194 89.0601 105.121C90.1253 104.691 91.0482 104.088 91.966 103.406C92.0498 103.35 92.1336 103.295 92.22 103.237C92.22 103.181 92.22 103.125 92.22 103.068C92.2657 103.049 92.3114 103.03 92.3588 103.01C92.6205 102.864 92.8161 102.675 93.0345 102.47C93.4731 102.06 93.4731 102.06 93.6594 101.967C93.6594 101.911 93.6594 101.855 93.6594 101.798C93.733 101.765 93.733 101.765 93.8092 101.732C94.0141 101.62 94.1445 101.496 94.3045 101.327C94.5738 101.044 94.5738 101.044 94.76 100.951C94.76 100.895 94.76 100.839 94.76 100.782C94.8066 100.76 94.854 100.74 94.9023 100.718C95.1343 100.593 95.3248 100.449 95.5221 100.274C95.5221 100.218 95.5221 100.162 95.5221 100.104C95.5957 100.07 95.5957 100.07 95.6711 100.036C95.8624 99.934 96.0131 99.8214 96.1782 99.6809C96.2299 99.6377 96.2815 99.5937 96.3349 99.5488C96.4729 99.4345 96.4729 99.4345 96.4534 99.2575C96.4991 99.2389 96.5449 99.2194 96.5923 99.1999C96.8539 99.0535 97.0495 98.8647 97.2679 98.6598C97.7065 98.25 97.7065 98.25 97.8928 98.1568C97.8928 98.1009 97.8928 98.0451 97.8928 97.9875C97.9664 97.9553 97.9664 97.9553 98.0426 97.9214C98.2475 97.8097 98.3779 97.6861 98.538 97.5167C98.8072 97.2339 98.8072 97.2339 98.9935 97.1408C98.9935 97.0849 98.9935 97.029 98.9935 96.9715C99.0392 96.9511 99.0849 96.9317 99.1323 96.9105C99.3855 96.7733 99.5955 96.6031 99.819 96.4211C99.902 96.3542 99.9858 96.2865 100.071 96.2171C100.135 96.1586 100.198 96.1002 100.264 96.0401C100.264 95.9842 100.264 95.9283 100.264 95.8708C100.319 95.8708 100.375 95.8708 100.433 95.8708C100.573 95.7582 100.573 95.7582 100.687 95.6168C100.687 95.5609 100.687 95.505 100.687 95.4474C100.755 95.4186 100.755 95.4186 100.826 95.3898C101.087 95.2434 101.283 95.0546 101.501 94.8497C101.94 94.4399 101.94 94.4399 102.126 94.3467C102.126 94.2908 102.126 94.235 102.126 94.1774C102.2 94.1452 102.2 94.1452 102.276 94.1113C102.481 93.9996 102.611 93.876 102.771 93.7066C103.041 93.4238 103.041 93.4238 103.227 93.3307C103.227 93.2748 103.227 93.2189 103.227 93.1614C103.273 93.1419 103.319 93.1224 103.367 93.1029C103.622 92.9599 103.812 92.7787 104.025 92.5797C104.258 92.3629 104.486 92.1538 104.737 91.9599C104.798 91.9091 104.858 91.8583 104.92 91.8067C104.92 91.7508 104.92 91.6949 104.92 91.6373C104.989 91.6085 104.989 91.6085 105.059 91.5798C105.321 91.4333 105.516 91.2445 105.735 91.0396C106.173 90.6298 106.173 90.6298 106.36 90.5366C106.36 90.4808 106.36 90.4249 106.36 90.3673C106.409 90.3444 106.458 90.3216 106.509 90.2987C106.7 90.1971 106.851 90.0845 107.016 89.9439C107.067 89.9008 107.119 89.8567 107.172 89.8119C107.31 89.6976 107.31 89.6976 107.291 89.5206C107.36 89.4918 107.36 89.4918 107.43 89.463C107.692 89.3166 107.887 89.1277 108.106 88.9228C108.544 88.513 108.544 88.513 108.73 88.4199C108.73 88.364 108.73 88.3081 108.73 88.2506C108.786 88.2506 108.842 88.2506 108.9 88.2506C109.04 88.138 109.04 88.138 109.154 87.9966C109.154 87.9407 109.154 87.8848 109.154 87.8272C109.202 87.8044 109.251 87.7815 109.302 87.7587C109.497 87.6554 109.663 87.5478 109.831 87.4039C109.831 87.348 109.831 87.2921 109.831 87.2346C109.878 87.2134 109.925 87.1931 109.973 87.171C110.205 87.0457 110.396 86.9018 110.593 86.7265C110.593 86.6707 110.593 86.6148 110.593 86.5572C110.642 86.5343 110.691 86.5115 110.742 86.4886C110.933 86.387 111.084 86.2744 111.249 86.1339C111.301 86.0907 111.353 86.0466 111.406 86.0018C111.544 85.8875 111.544 85.8875 111.524 85.7105C111.593 85.6817 111.593 85.6817 111.663 85.6529C111.925 85.5065 112.121 85.3176 112.339 85.1127C112.778 84.703 112.778 84.7029 112.964 84.6098C112.964 84.5539 112.964 84.4981 112.964 84.4405C113.02 84.4405 113.076 84.4405 113.133 84.4405C113.267 84.2957 113.267 84.2957 113.397 84.1128C113.466 84.0214 113.466 84.0214 113.535 83.9282C113.656 83.7716 113.656 83.7716 113.641 83.5938C113.697 83.5938 113.753 83.5938 113.811 83.5938C113.882 83.3804 113.952 83.1671 114.022 82.9537C114.042 82.8936 114.062 82.8343 114.083 82.7725C114.346 81.9588 114.233 81.1663 113.868 80.3959C113.769 80.2164 113.667 80.0411 113.557 79.8684C113.501 79.8684 113.445 79.8684 113.387 79.8684C113.364 79.8142 113.341 79.76 113.318 79.7041C113.227 79.5018 113.227 79.5018 112.964 79.445C112.964 79.3891 112.964 79.3333 112.964 79.2757C112.176 78.6263 111.25 78.5052 110.262 78.5746C109.831 78.633 109.448 78.8176 109.069 79.0217C109.069 79.0776 109.069 79.1334 109.069 79.191C109.011 79.2105 108.953 79.2291 108.894 79.2494C108.629 79.368 108.422 79.5136 108.192 79.6889C108.053 79.7837 108.053 79.7837 107.799 79.8684C107.799 79.9242 107.799 79.9801 107.799 80.0377C107.741 80.0572 107.683 80.0758 107.624 80.0961C107.359 80.2147 107.152 80.3603 106.922 80.5356C106.783 80.6304 106.783 80.6304 106.529 80.7151C106.529 80.7709 106.529 80.8268 106.529 80.8844C106.471 80.9039 106.413 80.9225 106.354 80.9428C106.089 81.0613 105.882 81.207 105.652 81.3822C105.513 81.4771 105.513 81.4771 105.259 81.5617C105.259 81.6176 105.259 81.6735 105.259 81.7311C105.172 81.7616 105.172 81.7616 105.084 81.792C104.782 81.9241 104.519 82.0968 104.248 82.2814C104.193 82.3187 104.138 82.3559 104.081 82.394C103.644 82.6895 103.214 82.9935 102.789 83.3059C102.556 83.4753 102.321 83.631 102.07 83.7716C101.845 83.8994 101.65 84.0264 101.449 84.1865C101.197 84.3795 100.945 84.5378 100.668 84.6894C100.495 84.7927 100.338 84.9104 100.179 85.0332C99.9274 85.2262 99.6751 85.3845 99.3982 85.5361C99.2246 85.6394 99.068 85.7571 98.9088 85.8798C98.6607 86.0704 98.4101 86.2287 98.1366 86.3794C97.8725 86.5343 97.6269 86.7155 97.3771 86.8925C97.0952 87.0898 96.809 87.282 96.522 87.4725C96.4678 87.5089 96.4136 87.5444 96.3577 87.5817C96.2468 87.6553 96.1359 87.729 96.025 87.8027C95.815 87.9424 95.605 88.0821 95.3959 88.2218C95.2926 88.2904 95.1902 88.359 95.0869 88.4275C94.7837 88.6299 94.4806 88.8323 94.1775 89.0346C94.1081 89.0812 94.0387 89.1277 93.9667 89.176C93.8304 89.2666 93.6949 89.358 93.5586 89.4486C93.4968 89.4901 93.435 89.5316 93.3715 89.574C93.2893 89.629 93.2893 89.629 93.2055 89.6849C93.0667 89.7746 93.0667 89.7746 92.8973 89.8593C92.8973 89.9152 92.8973 89.971 92.8973 90.0286C92.8279 90.0405 92.8279 90.0405 92.7576 90.0532C92.4994 90.1311 92.2996 90.2598 92.0718 90.4045C91.988 90.457 91.905 90.5087 91.8186 90.5629C91.7551 90.6103 91.6925 90.6577 91.6273 90.706C91.6273 90.7618 91.6273 90.8177 91.6273 90.8753C91.5579 90.8872 91.5579 90.8872 91.4876 90.8999C91.2294 90.9778 91.0295 91.1065 90.8018 91.2512C90.718 91.3037 90.635 91.3554 90.5486 91.4096C90.4851 91.457 90.4225 91.5044 90.3573 91.5527C90.3573 91.6085 90.3573 91.6644 90.3573 91.722C90.2878 91.7338 90.2878 91.7338 90.2176 91.7466C89.9593 91.8244 89.7595 91.9531 89.5317 92.0979C89.4479 92.1504 89.3649 92.2021 89.2786 92.2563C89.2151 92.3037 89.1524 92.3511 89.0872 92.3993C89.0872 92.4552 89.0872 92.5111 89.0872 92.5687C89.0288 92.5882 88.9712 92.6068 88.912 92.6271C88.647 92.7456 88.4404 92.8913 88.2101 93.0665C88.0712 93.1614 88.0712 93.1614 87.8172 93.246C87.8172 93.3019 87.8172 93.3578 87.8172 93.4154C87.752 93.4281 87.6877 93.4399 87.6208 93.4526C87.3862 93.4967 87.3862 93.4967 87.1399 93.5847C86.9849 93.5872 86.83 93.5839 86.6759 93.5771C86.5379 93.572 86.5379 93.572 86.3982 93.5661C86.3016 93.5619 86.206 93.5576 86.1077 93.5534C85.9663 93.5475 85.9663 93.5475 85.8224 93.5415C85.3906 93.5238 84.9681 93.495 84.5405 93.4348C84.0401 93.3849 83.5347 93.3857 83.0334 93.373C82.3654 93.3561 81.7058 93.3392 81.0437 93.246C80.8845 93.2393 80.7262 93.235 80.567 93.2359C80.4925 93.235 80.418 93.235 80.3418 93.235C80.1098 93.2418 80.1098 93.2418 79.8753 93.2875C79.6128 93.329 79.3639 93.3451 79.098 93.3519C79.0023 93.3544 78.9058 93.3569 78.8068 93.3595C78.7051 93.362 78.6027 93.3654 78.4977 93.368C77.6967 93.3925 76.9042 93.4374 76.1067 93.5229C75.4573 93.5906 74.807 93.6194 74.1542 93.6406C73.7063 93.6558 73.7063 93.6558 73.2618 93.7117C72.8368 93.7803 72.4083 93.7786 71.9782 93.7913C71.212 93.8167 70.455 93.865 69.6922 93.9462C68.9996 94.0174 68.3061 94.0428 67.6101 94.0639C67.5255 94.0665 67.4408 94.069 67.3536 94.0715C67.2791 94.0741 67.2046 94.0758 67.1275 94.0783C66.8981 94.0893 66.8981 94.0893 66.6542 94.1351C66.3909 94.1782 66.1411 94.1918 65.8744 94.1986C65.7745 94.2011 65.6755 94.2036 65.573 94.2062C65.4672 94.2087 65.3613 94.2121 65.253 94.2146C64.4156 94.2392 63.5875 94.2849 62.7552 94.3696C62.0974 94.4348 61.4403 94.4653 60.7799 94.4873C60.4633 94.4983 60.1576 94.5118 59.8443 94.5584C59.3905 94.621 58.9367 94.6253 58.4795 94.638C57.6616 94.6642 56.8521 94.7142 56.0385 94.7929C55.3078 94.8607 54.5788 94.8895 53.8455 94.9106C53.7583 94.9132 53.672 94.9157 53.5822 94.9182C53.4671 94.9216 53.4671 94.9216 53.3511 94.925C53.0911 94.9369 53.0911 94.9369 52.7914 94.9809C52.3621 95.0376 51.9329 95.0452 51.5002 95.0537C51.369 95.0571 51.369 95.0571 51.2352 95.0596C51.0515 95.0639 50.8677 95.0681 50.684 95.0715C50.4055 95.0774 50.126 95.0834 49.8475 95.0901C49.668 95.0944 49.4885 95.0977 49.309 95.1011C49.1854 95.1045 49.1854 95.1045 49.0592 95.1079C47.6757 95.1325 47.6757 95.1325 47.0915 94.8708C47.0212 94.8403 46.951 94.8099 46.879 94.7777C46.8096 94.7472 46.7393 94.7167 46.6682 94.6854C46.5285 94.6346 46.3888 94.583 46.2499 94.5322C45.6886 94.3078 45.1306 93.9979 44.7039 93.5661C44.5667 93.3959 44.5667 93.3959 44.3821 93.4154C44.3821 93.3595 44.3821 93.3036 44.3821 93.246C44.2687 93.1046 44.2687 93.1046 44.1281 92.992C44.0722 92.992 44.0163 92.992 43.9588 92.992C43.9342 92.9412 43.9097 92.8904 43.8843 92.8388C43.7852 92.6373 43.7852 92.6373 43.6201 92.3993C43.5134 91.8617 43.4965 91.3842 43.7048 90.8753C43.7852 90.7602 43.869 90.6459 43.9588 90.5366C43.9588 90.4808 43.9588 90.4249 43.9588 90.3673C44.0113 90.3504 44.0646 90.3326 44.1188 90.3148C44.1882 90.2919 44.2577 90.2691 44.3288 90.2454C44.4321 90.2115 44.4321 90.2115 44.5371 90.1768C44.7216 90.1175 44.7216 90.1175 44.8901 90.0286C45.4066 89.9507 45.8198 90.1785 46.2448 90.452C46.3456 90.5713 46.4463 90.6907 46.5378 90.8177C47.0187 91.3452 47.7502 91.7736 48.4657 91.827C48.5622 91.827 48.6587 91.827 48.7578 91.8261C48.8645 91.8261 48.9703 91.8261 49.0804 91.8261C49.1905 91.8244 49.3005 91.8236 49.414 91.8228C49.5241 91.8228 49.6341 91.8228 49.7467 91.8228C50.2556 91.8202 50.7365 91.7957 51.2403 91.722C51.4164 91.7118 51.5925 91.7051 51.7695 91.7008C51.8685 91.6983 51.9684 91.6957 52.07 91.6932C52.175 91.6907 52.28 91.6881 52.3884 91.6847C53.2232 91.6602 54.0496 91.6145 54.8802 91.5298C55.5381 91.4646 56.1951 91.4341 56.8555 91.4121C57.1705 91.4011 57.4745 91.3884 57.786 91.341C58.2712 91.2749 58.7572 91.2741 59.2466 91.2614C60.0814 91.2368 60.9078 91.1911 61.7384 91.1064C62.3962 91.0413 63.0533 91.0108 63.7137 90.9888C64.0287 90.9778 64.3326 90.965 64.6442 90.9176C65.1294 90.8516 65.6154 90.8508 66.1047 90.8381C66.9396 90.8135 67.7659 90.7678 68.5965 90.6831C69.2544 90.6179 69.9115 90.5874 70.5719 90.5654C70.8868 90.5544 71.1908 90.5417 71.5024 90.4943C71.9875 90.4283 72.4735 90.4274 72.9629 90.4147C73.7977 90.3902 74.6241 90.3453 75.4547 90.2598C76.1126 90.1946 76.7696 90.1658 77.43 90.1497C77.8737 90.1362 78.2513 90.0879 78.673 89.9439C78.8068 88.5943 78.2454 87.3514 77.5723 86.2185C77.5164 86.2185 77.4605 86.2185 77.4029 86.2185C77.3716 86.1262 77.3716 86.1262 77.3403 86.0314C76.9271 85.117 75.7172 84.349 74.8121 83.9765C74.6385 83.9189 74.4632 83.8647 74.2863 83.8156C74.1009 83.7631 74.1009 83.7631 74.0162 83.6785C73.2923 83.5176 72.5574 83.4659 71.8199 83.4194C71.6192 83.4058 71.4194 83.3931 71.2196 83.3796C71.0892 83.3711 71.0892 83.3711 70.9554 83.3626C70.7285 83.3415 70.5134 83.3 70.2908 83.2551C70.1587 83.2441 70.0258 83.2365 69.8937 83.2314C69.82 83.228 69.7472 83.2246 69.6718 83.2221C69.5965 83.2187 69.5211 83.2162 69.4441 83.2128C69.2934 83.2069 69.1435 83.2009 68.9936 83.1942C68.9276 83.1916 68.8616 83.1891 68.7938 83.1865C68.5974 83.1704 68.5974 83.1704 68.3933 83.129C68.1436 83.0799 67.9006 83.0604 67.6474 83.0434C67.5475 83.0367 67.4476 83.0299 67.3443 83.0223C67.241 83.0155 67.1377 83.0087 67.031 83.0011C66.8253 82.9876 66.6195 82.9732 66.4138 82.9588C66.3232 82.9529 66.2326 82.9469 66.1386 82.9402C65.9083 82.9181 65.6907 82.8775 65.4646 82.8318C65.3326 82.8208 65.1996 82.8131 65.0675 82.8081C64.9939 82.8047 64.9211 82.8013 64.8457 82.7988C64.7704 82.7954 64.695 82.7928 64.618 82.7894C64.4672 82.7835 64.3174 82.7776 64.1675 82.7708C64.1015 82.7683 64.0354 82.7657 63.9677 82.7632C63.7713 82.7471 63.7713 82.7471 63.5664 82.7056C63.3225 82.6574 63.0846 82.637 62.8365 82.6201C62.74 82.6133 62.6435 82.6066 62.5444 82.5989C62.3421 82.5845 62.1397 82.571 61.9382 82.5566C61.8417 82.5498 61.7451 82.5431 61.6461 82.5354C61.558 82.5295 61.47 82.5236 61.3802 82.5168C61.1787 82.4965 61.0026 82.4575 60.8079 82.4084C60.6656 82.3974 60.5242 82.3898 60.382 82.3847C60.3007 82.3813 60.2194 82.378 60.1364 82.3754C60.0518 82.372 59.9679 82.3695 59.8816 82.3661C59.7148 82.3602 59.548 82.3542 59.382 82.3475C59.3084 82.3449 59.2347 82.3424 59.1585 82.3399C58.9401 82.3238 58.736 82.2823 58.5218 82.2391C58.3465 82.2222 58.1704 82.2086 57.9952 82.1968C57.8953 82.19 57.7953 82.1832 57.6921 82.1756C57.5888 82.1688 57.4855 82.162 57.3788 82.1544C57.173 82.1409 56.9673 82.1265 56.7615 82.1121C56.6709 82.1062 56.5803 82.1002 56.4864 82.0935C56.2561 82.0714 56.0385 82.0308 55.8124 81.9851C55.6862 81.9741 55.5601 81.9665 55.4339 81.9614C55.3645 81.958 55.2951 81.9546 55.224 81.9521C55.152 81.9487 55.0809 81.9461 55.008 81.9427C54.8658 81.9368 54.7236 81.9309 54.5813 81.9241C54.5195 81.9216 54.4569 81.919 54.3925 81.9165C54.2037 81.9004 54.2037 81.9004 54.0005 81.8589C53.7541 81.8107 53.5153 81.792 53.2647 81.7768C53.1657 81.77 53.0666 81.7633 52.9641 81.7565C52.86 81.7497 52.755 81.7438 52.6475 81.7362C50.9406 81.6176 49.4013 81.422 47.8501 80.6634C47.6199 80.5559 47.3955 80.4721 47.155 80.3925C46.6597 80.2206 46.2093 79.9742 45.7521 79.721C45.4583 79.5602 45.1721 79.4188 44.8563 79.3053C44.5515 79.191 44.5515 79.191 44.3821 79.0217C44.245 78.9624 44.1078 78.9031 43.9698 78.8464C43.6091 78.6889 43.2636 78.501 42.9157 78.3181C42.8411 78.2791 42.7658 78.2402 42.6887 78.1995C42.2358 77.9625 41.7946 77.7119 41.3586 77.446C40.7905 77.0599 40.7905 77.0599 40.1487 76.905C40.1487 76.8491 40.1487 76.7932 40.1487 76.7356C40.0733 76.6984 39.9988 76.662 39.9218 76.6239C39.4349 76.3826 38.9506 76.1396 38.4765 75.8728C37.7754 75.4876 37.0278 75.237 36.2751 74.9711C36.0626 74.8949 35.8509 74.817 35.6401 74.7357C34.9517 74.4834 34.265 74.3124 33.5445 74.1854C33.387 74.1566 33.2304 74.1287 33.0729 74.0999C33.0052 74.0872 32.9366 74.0753 32.8663 74.0626C32.6978 74.0262 32.6978 74.0262 32.5285 73.9416C32.2897 73.9077 32.0526 73.8781 31.8139 73.8518C31.7495 73.8442 31.6852 73.8366 31.6191 73.8281C31.2491 73.7866 30.8851 73.768 30.5125 73.7705C30.4295 73.7705 30.3466 73.7705 30.2619 73.7714C30.1679 73.7714 30.1679 73.7714 30.0731 73.7722C30.0722 73.8239 30.0722 73.8764 30.0714 73.9297C30.068 74.4707 30.0621 75.0118 30.0553 75.5528C30.0528 75.7552 30.0511 75.9567 30.0494 76.159C30.0477 76.4494 30.0443 76.7399 30.0392 77.0303C30.0392 77.12 30.0392 77.2098 30.0392 77.3029C30.0257 77.9862 29.8936 78.2614 29.4169 78.7541C29.0892 78.9717 28.8395 78.998 28.4585 78.9844C28.4 78.9853 28.3408 78.987 28.2807 78.9878C27.8632 78.9819 27.6651 78.8769 27.3637 78.5983C27.3078 78.5983 27.2519 78.5983 27.1944 78.5983C27.1571 78.5044 27.1571 78.5044 27.1198 78.4078C27.0343 78.1843 27.0343 78.1843 26.9353 78.0217C26.8345 77.7881 26.8337 77.6077 26.8328 77.3537C26.832 77.2555 26.8311 77.1573 26.8311 77.0557C26.8311 76.9481 26.8311 76.8406 26.8311 76.7297C26.8303 76.6145 26.8303 76.5002 26.8294 76.3851C26.8277 76.1379 26.8269 75.8915 26.8269 75.6442C26.826 75.2539 26.8244 74.8636 26.8227 74.4733C26.8176 73.5749 26.815 72.6766 26.8125 71.7774C26.81 70.9536 26.8066 70.1298 26.8023 69.3059C26.8006 68.9173 26.799 68.5295 26.799 68.1417C26.7981 67.9004 26.7973 67.6591 26.7956 67.4178C26.7947 67.2527 26.7947 67.0868 26.7956 66.9217C26.7947 66.8234 26.7939 66.7252 26.793 66.6236C26.793 66.4958 26.793 66.4958 26.7922 66.3645C26.7854 66.1309 26.7854 66.1309 26.6017 65.898C26.3502 65.8591 26.3502 65.8591 26.0488 65.865C25.9921 65.865 25.9345 65.8642 25.8752 65.8642C25.6822 65.8625 25.4891 65.8633 25.2961 65.8642C25.1581 65.8633 25.0201 65.8625 24.8821 65.8625C24.5061 65.8608 24.1302 65.8608 23.7543 65.8608C23.441 65.8616 23.1277 65.8608 22.8144 65.8608C22.0753 65.8591 21.3361 65.8591 20.5978 65.8599C19.8341 65.8616 19.0712 65.8599 18.3084 65.8582C17.6539 65.8557 16.9994 65.8557 16.3449 65.8557C15.9537 65.8565 15.5617 65.8557 15.1705 65.8548C14.8031 65.8531 14.4356 65.8531 14.0673 65.8548C13.9318 65.8557 13.7972 65.8548 13.6617 65.854C13.4772 65.8531 13.2934 65.854 13.1089 65.8557C12.9548 65.8557 12.9548 65.8557 12.7964 65.8557C12.5458 65.8752 12.5458 65.8752 12.4053 66.0276Z" fill="url(#paint0_linear_35_1325)"/>
<path d="M66.7657 12.4319C67.0248 12.4319 67.2839 12.4319 67.5422 12.431C67.6065 12.431 67.6709 12.431 67.7369 12.431C68.802 12.4302 69.8672 12.4276 70.9323 12.4234C72.0491 12.42 73.1667 12.4175 74.2835 12.4175C74.9016 12.4175 75.5197 12.4166 76.1386 12.4132C76.7109 12.4107 77.2833 12.4099 77.8557 12.4116C78.064 12.4116 78.2731 12.4107 78.4814 12.409C79.8073 12.3989 80.6718 12.4454 81.7208 13.3184C82.4049 14.0372 82.6276 14.8043 82.7368 15.7737C82.9096 17.1403 82.9096 17.1403 83.3287 18.4434C83.4091 18.6406 83.4768 18.8371 83.5412 19.0394C83.7021 19.5339 83.9154 20.0013 84.155 20.4627C84.2609 20.6845 84.2609 20.6845 84.2609 20.9385C84.3167 20.9385 84.3726 20.9385 84.4302 20.9385C84.4581 21.0782 84.4861 21.218 84.5149 21.3619C84.5708 21.3619 84.6266 21.3619 84.6842 21.3619C84.7519 21.488 84.752 21.488 84.8214 21.6159C84.9992 21.9292 85.2083 22.2069 85.4318 22.4888C85.5309 22.6319 85.5309 22.6319 85.5309 22.8013C85.5868 22.8013 85.6427 22.8013 85.7002 22.8013C85.8137 22.9333 85.9221 23.0705 86.0279 23.2094C86.331 23.5887 86.6477 23.9257 87.0075 24.2516C87.0515 24.2914 87.0956 24.3321 87.1404 24.3727C87.3775 24.5844 87.3775 24.5844 87.6476 24.7486C87.6476 24.8045 87.6476 24.8604 87.6476 24.918C87.712 24.9485 87.712 24.9485 87.7789 24.9789C88.0625 25.1271 88.33 25.2973 88.6001 25.4683C88.6552 25.503 88.7102 25.5369 88.7669 25.5725C88.9049 25.6605 89.0387 25.7545 89.1717 25.8493C89.1717 25.9052 89.1717 25.9611 89.1717 26.0187C89.2182 26.0288 89.2648 26.0381 89.313 26.0475C89.545 26.1135 89.7406 26.2109 89.9548 26.3209C90.0429 26.3658 90.1309 26.4107 90.2215 26.4564C90.2698 26.481 90.3181 26.5055 90.368 26.5309C90.6669 26.6833 90.9666 26.8323 91.2672 26.9822C91.3849 27.0415 91.5026 27.0999 91.6203 27.1592C91.7066 27.2015 91.7922 27.2447 91.8811 27.2887C91.8811 27.3446 91.8811 27.4005 91.8811 27.458C91.9437 27.4784 92.0064 27.4978 92.0707 27.519C92.5973 27.7654 93.0207 28.4216 93.251 28.9499C93.6989 30.2504 93.6718 31.8227 93.2358 33.1308C93.2248 33.2722 93.2163 33.4136 93.2095 33.5542C93.168 34.1079 93.0546 34.6346 92.9343 35.1748C92.859 35.5194 92.7929 35.853 92.7701 36.206C92.7379 36.6429 92.6041 37.0417 92.478 37.46C92.3577 37.8791 92.29 38.3075 92.2231 38.7385C92.1706 39.0653 92.0919 39.3455 91.9657 39.6503C91.92 39.8476 91.8777 40.0449 91.8387 40.243C91.7676 40.602 91.6804 40.9221 91.5424 41.2591C91.4975 41.4284 91.4552 41.5977 91.4154 41.7671C91.3392 42.093 91.2435 42.3894 91.119 42.6984C91.0318 42.9914 90.9514 43.2852 90.871 43.579C90.7253 44.1039 90.5678 44.6102 90.357 45.1123C90.2622 45.3494 90.1818 45.589 90.103 45.8312C89.9786 46.2122 89.8422 46.583 89.6898 46.953C89.5967 47.1825 89.5061 47.4119 89.4163 47.6422C89.2013 48.1858 88.9718 48.7192 88.7221 49.2492C88.612 49.4838 88.5062 49.72 88.4012 49.9579C88.0608 50.7284 87.706 51.4828 87.3005 52.222C87.1362 52.5234 86.9838 52.8307 86.8323 53.1398C86.6265 53.5563 86.4047 53.9551 86.1608 54.3505C86.0389 54.552 85.9305 54.7569 85.8222 54.9652C85.4437 55.6671 84.9907 56.3233 84.553 56.9888C84.4099 57.2081 84.2719 57.4308 84.1339 57.6535C83.741 58.2749 83.299 58.8634 82.8647 59.4561C82.78 59.5729 82.6962 59.6914 82.6149 59.8108C82.5184 59.9514 82.4159 60.0885 82.3135 60.2249C82.2576 60.2249 82.2017 60.2249 82.1441 60.2249C82.1154 60.3138 82.1154 60.3138 82.0857 60.4044C81.9503 60.7015 81.7589 60.9285 81.5464 61.1723C81.2661 61.483 81.2661 61.483 81.0435 61.8336C80.9876 61.8336 80.9317 61.8336 80.8741 61.8336C80.8479 61.8861 80.8216 61.9385 80.7945 61.9927C80.7361 62.1087 80.6785 62.2256 80.6201 62.3416C80.5642 62.3416 80.5083 62.3416 80.4508 62.3416C80.4508 62.3975 80.4508 62.4533 80.4508 62.5109C80.3949 62.5109 80.339 62.5109 80.2814 62.5109C80.2611 62.5575 80.2408 62.6032 80.2205 62.6506C80.0825 62.9038 79.9131 63.1138 79.7311 63.3364C79.6303 63.4617 79.6303 63.4617 79.527 63.5896C79.4398 63.6844 79.4398 63.6844 79.3501 63.7809C79.2942 63.7809 79.2383 63.7809 79.1807 63.7809C79.1807 63.8368 79.1807 63.8927 79.1807 63.9503C79.0639 64.0883 79.0639 64.0883 78.9267 64.2043C78.8709 64.2043 78.815 64.2043 78.7574 64.2043C78.7345 64.2585 78.7117 64.3127 78.6888 64.3685C78.5881 64.543 78.5881 64.543 78.3341 64.6276C78.3061 64.6835 78.2782 64.7394 78.2494 64.797C78.2214 64.8529 78.1935 64.9087 78.1647 64.9663C78.0809 64.9942 77.9971 65.0222 77.9107 65.051C77.8828 65.1069 77.8548 65.1627 77.826 65.2203C77.7981 65.2762 77.7702 65.3321 77.7414 65.3897C77.6576 65.4176 77.5737 65.4455 77.4874 65.4743C77.4594 65.5581 77.4315 65.642 77.4027 65.7283C77.3468 65.7283 77.2909 65.7283 77.2334 65.7283C77.2334 65.7842 77.2334 65.8401 77.2334 65.8977C77.1775 65.8977 77.1216 65.8977 77.064 65.8977C77.064 65.9535 77.064 66.0094 77.064 66.067C76.9455 66.1872 76.9455 66.1872 76.7778 66.3269C76.4155 66.6334 76.0658 66.9535 75.7178 67.2761C75.54 67.4217 75.54 67.4217 75.3706 67.4217C75.3706 67.4776 75.3706 67.5335 75.3706 67.591C75.1911 67.7561 75.1911 67.7561 74.9575 67.9407C74.8813 68.0017 74.8042 68.0635 74.7255 68.127C74.524 68.2684 74.524 68.2684 74.3546 68.2684C74.3546 68.3243 74.3546 68.3802 74.3546 68.4377C74.2073 68.5605 74.0549 68.6756 73.8991 68.7874C73.8153 68.8484 73.7306 68.9102 73.6434 68.9737C73.4233 69.1151 73.4233 69.1151 73.2539 69.1151C73.2539 69.171 73.2539 69.2268 73.2539 69.2844C73.0448 69.4453 72.8357 69.5968 72.6189 69.745C72.5529 69.7907 72.4877 69.8365 72.4199 69.883C72.2836 69.977 72.1473 70.0718 72.011 70.165C71.8357 70.286 71.6621 70.408 71.4886 70.5307C69.9595 71.6052 68.3584 72.6398 66.6777 73.462C66.4034 73.5991 66.1333 73.7431 65.8632 73.8887C63.815 74.9902 63.815 74.9902 62.8464 74.7193C62.1632 74.4763 61.5307 74.1342 60.8957 73.7879C60.6112 73.633 60.3233 73.4865 60.0337 73.3426C58.569 72.6127 57.1897 71.7407 55.8249 70.8432C55.5996 70.6967 55.3727 70.5536 55.145 70.4122C54.7767 70.1785 54.4177 69.9321 54.0604 69.6815C54.0079 69.6451 53.9545 69.6087 53.8995 69.5706C53.7716 69.48 53.6489 69.3826 53.5261 69.2844C53.5261 69.2285 53.5261 69.1727 53.5261 69.1151C53.4787 69.0931 53.4304 69.0702 53.3822 69.0465C53.1739 68.939 52.9808 68.8204 52.7852 68.6917C52.6836 68.6265 52.6836 68.6265 52.5803 68.5597C52.5033 68.4995 52.5033 68.4995 52.4254 68.4377C52.4254 68.3818 52.4254 68.326 52.4254 68.2684C52.3788 68.2489 52.3331 68.2286 52.2857 68.2083C52.0359 68.072 51.8336 67.9009 51.616 67.718C51.3814 67.5225 51.1554 67.3379 50.9014 67.1677C50.9014 67.1118 50.9014 67.0559 50.9014 66.9984C50.8539 66.978 50.8065 66.9569 50.7583 66.9349C50.5263 66.8104 50.3358 66.6656 50.1393 66.4903C50.1393 66.4345 50.1393 66.3786 50.1393 66.321C50.0894 66.2998 50.0403 66.2778 49.9886 66.2558C49.7846 66.1432 49.6542 66.0196 49.4933 65.8502C49.2884 65.6318 49.2884 65.6318 49.0387 65.4743C49.0387 65.4184 49.0387 65.3626 49.0387 65.305C48.9548 65.277 48.871 65.2491 48.7846 65.2203C48.7846 65.1644 48.7846 65.1086 48.7846 65.051C48.7288 65.051 48.6729 65.051 48.6153 65.051C48.6153 64.9951 48.6153 64.9392 48.6153 64.8816C48.5315 64.8537 48.4477 64.8258 48.3613 64.797C48.3613 64.7411 48.3613 64.6852 48.3613 64.6276C48.3054 64.6276 48.2495 64.6276 48.192 64.6276C48.192 64.5718 48.192 64.5159 48.192 64.4583C48.1081 64.4304 48.0243 64.4024 47.938 64.3736C47.938 64.3177 47.938 64.2619 47.938 64.2043C47.8821 64.2043 47.8262 64.2043 47.7686 64.2043C47.6315 64.0654 47.6315 64.0654 47.4774 63.8817C47.2623 63.6268 47.2623 63.6268 47.0303 63.3889C46.9219 63.2729 46.9219 63.2729 46.9219 63.1036C46.866 63.1036 46.8102 63.1036 46.7526 63.1036C46.6247 62.98 46.6247 62.98 46.4876 62.8183C46.4198 62.7387 46.4198 62.7387 46.3496 62.6574C46.2446 62.5109 46.2446 62.5109 46.2446 62.3416C46.1887 62.3416 46.1328 62.3416 46.0752 62.3416C45.9465 62.2002 45.8238 62.0529 45.7044 61.903C45.6392 61.8209 45.574 61.7396 45.5071 61.6558C45.4428 61.5745 45.3793 61.494 45.3132 61.4102C45.2489 61.334 45.1854 61.2578 45.1193 61.1791C44.9745 60.9869 44.9745 60.9869 44.9745 60.8175C44.9187 60.8175 44.8628 60.8175 44.8052 60.8175C44.6604 60.649 44.6604 60.649 44.4826 60.4052C44.4496 60.3603 44.4166 60.3163 44.3827 60.2697C44.2693 60.1148 44.1558 59.9581 44.0432 59.8015C43.9534 59.6796 43.8645 59.5568 43.7748 59.434C43.4954 59.0497 43.2185 58.6644 42.9425 58.2775C42.9069 58.2284 42.8714 58.1793 42.835 58.1285C42.2838 57.3546 41.7808 56.5528 41.2779 55.7484C41.1331 55.519 40.985 55.2929 40.8359 55.066C40.5921 54.6841 40.3923 54.2887 40.195 53.8815C40.0096 53.5149 39.7971 53.166 39.5828 52.8163C39.4711 52.6047 39.4711 52.6047 39.4711 52.3507C39.4152 52.3507 39.3593 52.3507 39.3017 52.3507C39.1883 52.117 39.0757 51.8824 38.9631 51.6471C38.9309 51.581 38.8987 51.5141 38.8648 51.4456C38.8344 51.3812 38.8039 51.3177 38.7726 51.2517C38.7438 51.1924 38.7158 51.1331 38.6862 51.073C38.6244 50.9113 38.6244 50.9113 38.6244 50.6573C38.5685 50.6573 38.5126 50.6573 38.4551 50.6573C38.4364 50.6082 38.4178 50.5591 38.3983 50.5083C38.2391 50.0959 38.0647 49.7014 37.8624 49.3085C37.6617 48.9148 37.5034 48.5228 37.3594 48.1054C37.224 47.7413 37.0546 47.395 36.8853 47.0453C36.7634 46.7668 36.6668 46.489 36.5729 46.1995C36.4653 45.8727 36.3426 45.5509 36.2215 45.2283C35.8549 44.2385 35.5196 43.2445 35.2351 42.2268C35.0776 41.6722 34.91 41.1185 34.7245 40.5724C34.6594 40.3734 34.6077 40.1829 34.5654 39.9789C34.4993 39.6698 34.4257 39.3642 34.3486 39.0577C34.2589 38.7037 34.1742 38.349 34.0971 37.9925C34.0624 37.835 34.026 37.6793 33.9879 37.5235C33.8736 37.0451 33.7788 36.5819 33.7339 36.0926C33.7017 35.8309 33.6196 35.5854 33.5443 35.3322C33.4139 34.7937 33.3538 34.2646 33.314 33.7117C33.2936 33.5017 33.2606 33.3095 33.2107 33.1046C32.8593 31.6424 32.717 30.065 33.5273 28.7323C33.6907 28.5189 33.8635 28.3276 34.0523 28.1354C34.1327 28.0473 34.1327 28.0473 34.2148 27.9576C34.7508 27.4208 35.4171 27.1465 36.1046 26.8518C36.2765 26.7748 36.2765 26.7748 36.5077 26.6114C36.5915 26.6114 36.6753 26.6114 36.7617 26.6114C36.7617 26.5555 36.7617 26.4996 36.7617 26.442C36.8201 26.4124 36.8785 26.3827 36.9386 26.3523C37.4348 26.0915 37.8742 25.8129 38.3043 25.4539C38.4551 25.3413 38.4551 25.3413 38.6244 25.3413C38.6244 25.2854 38.6244 25.2296 38.6244 25.172C39.0875 24.7486 39.0875 24.7486 39.3017 24.7486C39.3017 24.6928 39.3017 24.6369 39.3017 24.5793C39.4177 24.4421 39.4177 24.4421 39.5557 24.3253C39.6116 24.3253 39.6675 24.3253 39.7251 24.3253C39.7251 24.2694 39.7251 24.2135 39.7251 24.156C39.8411 24.0188 39.8411 24.0188 39.9791 23.902C40.035 23.902 40.0909 23.902 40.1484 23.902C40.1713 23.8537 40.1933 23.8046 40.217 23.7538C40.3203 23.559 40.4278 23.3922 40.5718 23.2246C40.6277 23.2246 40.6835 23.2246 40.7411 23.2246C40.7606 23.1814 40.7792 23.1374 40.7995 23.0925C40.9265 22.8571 41.0781 22.6505 41.239 22.4363C41.349 22.2839 41.349 22.2839 41.4185 22.0392C41.4743 22.0392 41.5302 22.0392 41.5878 22.0392C41.6784 21.8149 41.7648 21.5922 41.8418 21.3619C41.8977 21.3619 41.9536 21.3619 42.0111 21.3619C42.0205 21.3018 42.0289 21.2417 42.0391 21.1799C42.1017 20.9148 42.2008 20.7133 42.3286 20.4729C42.7901 19.5669 43.0822 18.6652 43.2981 17.6754C43.3658 17.3825 43.3658 17.3825 43.4505 17.2131C43.47 17.0658 43.4852 16.9176 43.4996 16.7695C43.7265 14.5037 43.7265 14.5037 44.3819 13.7417C44.4377 13.7417 44.4936 13.7417 44.5512 13.7417C44.5791 13.6579 44.6071 13.5741 44.6359 13.4877C44.6918 13.4877 44.7476 13.4877 44.8052 13.4877C44.8052 13.4318 44.8052 13.3759 44.8052 13.3184C44.9297 13.2184 44.9297 13.2184 45.1016 13.1126C45.1566 13.0779 45.2116 13.0423 45.2683 13.0068C45.8636 12.6977 46.3496 12.6029 47.0117 12.5978C47.1378 12.5953 47.1378 12.5953 47.2657 12.5927C47.5459 12.5877 47.8262 12.5843 48.1064 12.5809C48.3088 12.5775 48.5103 12.5741 48.7127 12.5707C49.208 12.5631 49.7033 12.5563 50.1978 12.5504C50.6076 12.5453 51.0165 12.5394 51.4263 12.5335C56.5386 12.4607 61.6526 12.4353 66.7657 12.4319ZM69.1433 15.8085C66.538 15.8593 63.9327 15.8745 61.3275 15.8855C61.1717 15.8864 61.1717 15.8864 61.0125 15.8872C59.7281 15.8923 58.4437 15.8974 57.1592 15.9024C56.0492 15.9067 54.9392 15.9118 53.8301 15.916C51.555 15.9253 49.2808 15.9346 47.0066 15.9431C46.9956 16.0201 46.9956 16.0201 46.9846 16.098C46.9524 16.3317 46.9194 16.5654 46.8864 16.7991C46.8754 16.8795 46.8635 16.96 46.8525 17.0429C46.7746 17.5924 46.6781 18.1309 46.5409 18.6686C46.524 18.7389 46.5071 18.8083 46.4893 18.8802C46.3216 19.561 46.1531 20.2282 45.8238 20.8496C45.7273 21.0418 45.6494 21.2357 45.5723 21.4364C45.2751 22.1942 44.8814 22.8944 44.4615 23.5904C44.3954 23.7004 44.3954 23.7004 44.3285 23.8122C44.1109 24.1737 43.8849 24.5048 43.6198 24.8333C43.6198 24.8892 43.6198 24.9451 43.6198 25.0026C43.564 25.0026 43.5081 25.0026 43.4505 25.0026C43.3227 25.1449 43.3227 25.1449 43.1914 25.3312C42.1923 26.6503 40.9994 27.7171 39.6353 28.6434C39.4414 28.7755 39.2518 28.911 39.0638 29.0515C38.759 29.2606 38.4491 29.4164 38.1164 29.5748C37.9377 29.6654 37.7599 29.7551 37.5821 29.8449C37.3366 29.9693 37.1071 30.0811 36.8463 30.1674C36.8463 30.2233 36.8463 30.2792 36.8463 30.3368C36.7922 30.3495 36.738 30.3613 36.6821 30.374C36.5094 30.4054 36.5094 30.4054 36.423 30.5061C36.412 30.7593 36.4069 31.0099 36.4069 31.2631C36.4061 31.3325 36.4052 31.4019 36.4035 31.473C36.4027 31.915 36.4526 32.3189 36.5475 32.7498C36.622 33.1054 36.666 33.4644 36.7143 33.8243C36.8565 34.8488 37.0538 35.8496 37.3129 36.8503C37.4458 37.3728 37.5423 37.8985 37.6329 38.4294C37.6863 38.6894 37.7616 38.8993 37.8624 39.1423C37.936 39.3828 38.0021 39.6249 38.069 39.8679C38.0876 39.9357 38.1062 40.0034 38.1257 40.0728C38.2298 40.453 38.3272 40.8332 38.4178 41.2167C38.5109 41.5977 38.6388 41.9474 38.7912 42.3081C38.8886 42.5553 38.9656 42.8043 39.0427 43.0583C39.2848 43.8652 39.5684 44.656 39.8868 45.4358C39.9571 45.6093 40.0265 45.7838 40.0951 45.9582C40.3372 46.5737 40.5955 47.1774 40.8774 47.776C41.0434 48.1384 41.1907 48.5075 41.3338 48.8792C41.3897 48.8792 41.4456 48.8792 41.5031 48.8792C41.5099 48.9343 41.5167 48.9885 41.5243 49.0443C41.6124 49.4042 41.7664 49.7208 41.9265 50.0544C41.9773 50.1611 41.9773 50.1611 42.0289 50.2695C42.3016 50.8334 42.6089 51.3677 42.9383 51.8994C43.0873 52.1415 43.2261 52.3862 43.3608 52.6368C43.5834 53.0509 43.8163 53.4581 44.0534 53.8645C44.0889 53.9263 44.1245 53.9873 44.1617 54.0508C44.3556 54.3819 44.5639 54.6765 44.8052 54.9754C44.8467 55.1016 44.8467 55.1016 44.8899 55.2294C44.9458 55.2294 45.0016 55.2294 45.0592 55.2294C45.088 55.3158 45.088 55.3158 45.1168 55.4038C45.259 55.7205 45.4504 55.9787 45.657 56.2564C46.0642 56.8059 46.0642 56.8059 46.1599 57.0921C46.2158 57.0921 46.2717 57.0921 46.3292 57.0921C46.3521 57.1404 46.3741 57.1878 46.3978 57.2369C46.5054 57.4443 46.6247 57.6374 46.7526 57.833C46.7958 57.9007 46.8398 57.9684 46.8847 58.0387C46.9253 58.0895 46.9651 58.1403 47.0066 58.1928C47.0625 58.1928 47.1184 58.1928 47.1759 58.1928C47.1971 58.2385 47.2174 58.2842 47.2394 58.3308C47.3707 58.5814 47.5172 58.8109 47.6839 59.0395C47.7398 59.0395 47.7957 59.0395 47.8533 59.0395C47.8872 59.1123 47.8872 59.1123 47.9219 59.1868C48.026 59.3849 48.1429 59.5585 48.2766 59.738C48.3198 59.7981 48.3638 59.8582 48.4087 59.92C48.4494 59.9649 48.4891 60.0098 48.5306 60.0555C48.5865 60.0555 48.6424 60.0555 48.7 60.0555C48.7338 60.13 48.7338 60.13 48.7686 60.2054C48.8702 60.3967 48.9828 60.5474 49.1233 60.7117C49.1665 60.7642 49.2105 60.8158 49.2554 60.8692C49.3689 61.0072 49.3689 61.0072 49.5467 60.9869C49.5467 61.0428 49.5467 61.0986 49.5467 61.1562C49.6025 61.1562 49.6584 61.1562 49.716 61.1562C49.7346 61.2028 49.7533 61.2485 49.7719 61.2959C49.9226 61.5609 50.1258 61.7599 50.34 61.9733C50.3849 62.0173 50.4289 62.0622 50.4746 62.1079C50.5686 62.2019 50.6626 62.2959 50.7566 62.389C50.9014 62.5329 51.0445 62.6769 51.1884 62.8216C51.2798 62.9131 51.3704 63.0037 51.4619 63.0951C51.5051 63.1383 51.5482 63.1815 51.5923 63.2264C51.8005 63.4584 51.8005 63.4584 52.0867 63.5269C52.0867 63.5828 52.0867 63.6387 52.0867 63.6963C52.1426 63.6963 52.1985 63.6963 52.2561 63.6963C52.2561 63.7522 52.2561 63.808 52.2561 63.8656C52.3695 63.9875 52.3695 63.9875 52.5262 64.1145C52.5863 64.1662 52.6472 64.2178 52.7099 64.2712C52.8208 64.3635 52.8208 64.3635 52.9334 64.4583C53.0282 64.5404 53.1231 64.6226 53.2171 64.7047C53.317 64.7902 53.416 64.8757 53.5151 64.9612C53.5634 65.0036 53.6125 65.0459 53.6616 65.0891C53.8995 65.3168 53.8995 65.3168 54.2034 65.3897C54.2034 65.4455 54.2034 65.5014 54.2034 65.559C54.3499 65.6818 54.5032 65.7969 54.6581 65.9087C54.7428 65.9696 54.8275 66.0314 54.9147 66.0949C55.1145 66.2524 55.1145 66.2524 55.3041 66.2363C55.3041 66.2922 55.3041 66.3481 55.3041 66.4057C55.4227 66.5132 55.4227 66.5132 55.5802 66.6182C55.6691 66.68 55.6691 66.68 55.7597 66.7435C55.824 66.7875 55.8884 66.8316 55.9552 66.8773C56.0204 66.9222 56.0856 66.9679 56.1534 67.0144C56.2863 67.1067 56.4201 67.199 56.5539 67.2913C56.7215 67.4065 56.8883 67.5233 57.0542 67.641C57.5182 67.967 57.9848 68.276 58.475 68.5613C58.8179 68.7696 59.1447 69.0008 59.4732 69.2311C59.701 69.3657 59.8695 69.4216 60.1303 69.4538C60.1303 69.5096 60.1303 69.5655 60.1303 69.6231C60.198 69.6561 60.2649 69.6891 60.3343 69.723C61.0921 70.0947 61.0921 70.0947 61.4215 70.3165C61.6247 70.4503 61.7881 70.5265 62.0141 70.6078C62.3316 70.7238 62.3316 70.7238 62.501 70.8931C62.6119 70.9397 62.7254 70.982 62.8397 71.0201C63.0717 71.0989 63.1699 71.1395 63.3477 71.3165C63.6889 71.2877 63.9844 71.0819 64.279 70.9202C64.6795 70.7026 65.0808 70.4909 65.4906 70.2903C66.0698 70.0024 66.6133 69.668 67.1612 69.3242C67.2213 69.287 67.2822 69.2489 67.344 69.2099C67.4651 69.1337 67.5853 69.0583 67.7056 68.9822C67.7606 68.9474 67.8165 68.9119 67.8741 68.8763C67.924 68.845 67.9731 68.8137 68.0239 68.7806C68.1831 68.6867 68.3457 68.6037 68.5125 68.5224C68.5125 68.4665 68.5125 68.4106 68.5125 68.3531C68.5616 68.3437 68.6115 68.3336 68.6623 68.3234C68.863 68.265 68.9883 68.1896 69.1576 68.0677C69.2152 68.0271 69.2728 67.9856 69.3329 67.9433C69.3939 67.8984 69.4548 67.8544 69.5175 67.8086C69.6462 67.7163 69.7749 67.6241 69.9027 67.5318C69.9679 67.4852 70.0323 67.4386 70.0983 67.3904C70.2804 67.26 70.4641 67.1313 70.6487 67.0034C70.7037 66.9645 70.7579 66.9264 70.8146 66.8866C70.9188 66.8146 71.0229 66.7427 71.127 66.6707C71.2464 66.5869 71.3616 66.4971 71.4759 66.4057C71.4759 66.3498 71.4759 66.2939 71.4759 66.2363C71.5241 66.2143 71.5732 66.1915 71.6232 66.1678C71.8188 66.0653 71.9839 65.9485 72.1583 65.813C72.3514 65.6648 72.5427 65.5251 72.7459 65.3897C72.7459 65.3338 72.7459 65.2779 72.7459 65.2203C72.7942 65.1983 72.8433 65.1754 72.8932 65.1517C73.088 65.0493 73.2539 64.935 73.4283 64.8029C73.4851 64.7597 73.5418 64.7174 73.6011 64.6734C73.7509 64.5523 73.8889 64.4346 74.0159 64.289C74.0159 64.2331 74.0159 64.1772 74.0159 64.1196C74.0642 64.1001 74.1125 64.0798 74.1616 64.0587C74.3936 63.9291 74.5468 63.7716 74.7305 63.5803C74.9397 63.3644 75.1403 63.1696 75.3757 62.9825C75.4299 62.9385 75.4841 62.8953 75.54 62.8496C75.54 62.7937 75.54 62.7378 75.54 62.6802C75.5959 62.6802 75.6517 62.6802 75.7093 62.6802C75.8304 62.5609 75.8304 62.5609 75.9582 62.4C76.2631 62.0393 76.5916 61.7099 76.9319 61.384C77.0352 61.2832 77.1351 61.1774 77.2334 61.0715C77.2334 61.0157 77.2334 60.9598 77.2334 60.9022C77.2892 60.9022 77.3451 60.9022 77.4027 60.9022C77.5365 60.7574 77.6643 60.6067 77.7888 60.4526C77.8574 60.3696 77.9251 60.2858 77.9954 60.1995C78.1757 59.9802 78.1757 59.9802 78.2494 59.7168C78.3053 59.7168 78.3611 59.7168 78.4187 59.7168C78.6219 59.4942 78.6219 59.4942 78.6727 59.2088C78.7286 59.2088 78.7845 59.2088 78.8421 59.2088C80.1536 57.8287 81.3627 55.9508 82.3016 54.2955C82.4405 54.0559 82.587 53.8214 82.7334 53.5868C83.0857 53.0195 83.4201 52.454 83.7097 51.8511C83.8358 51.5929 83.9688 51.3406 84.1051 51.0874C84.5225 50.3118 84.9052 49.5227 85.276 48.7243C85.3539 48.5575 85.4318 48.3907 85.5106 48.2248C85.7265 47.7625 85.9331 47.2993 86.1185 46.8235C86.2082 46.5932 86.3022 46.3629 86.3954 46.1334C86.6113 45.6026 86.806 45.07 86.9821 44.5239C87.0549 44.3071 87.0549 44.3071 87.1819 44.0218C87.3437 43.6306 87.4469 43.231 87.5596 42.8237C87.6332 42.5782 87.7154 42.3513 87.817 42.1167C88.0346 41.5969 88.1514 41.0516 88.2818 40.5055C88.3521 40.2159 88.4283 39.9281 88.5045 39.6402C88.5316 39.5403 88.5578 39.4404 88.5849 39.3379C88.634 39.1635 88.6873 38.9899 88.7475 38.8189C88.8609 38.4624 88.9278 38.1018 88.9972 37.7351C89.0887 37.2627 89.1818 36.7936 89.3037 36.3271C89.6001 35.1705 89.7525 33.9928 89.9032 32.81C89.9167 32.7033 89.9303 32.5966 89.9447 32.4874C89.9565 32.3908 89.9692 32.2952 89.9819 32.1961C90.0183 31.9455 90.0183 31.9455 90.0649 31.7643C90.1072 31.5907 90.1123 31.4383 90.1115 31.2597C90.1106 31.1953 90.1106 31.1318 90.1106 31.0658C90.1098 30.9997 90.1089 30.9345 90.1081 30.866C90.1072 30.766 90.1072 30.7661 90.1072 30.6628C90.1064 30.4977 90.1047 30.3325 90.103 30.1674C89.904 30.0599 89.7042 29.9524 89.5052 29.8449C89.4494 29.8152 89.3935 29.7847 89.3368 29.7534C89.0683 29.6095 88.8008 29.4732 88.5197 29.3563C88.1192 29.1844 87.7628 28.9584 87.3936 28.7281C87.2844 28.6629 87.2844 28.6629 87.1735 28.5968C86.6426 28.2709 86.1558 27.9059 85.6731 27.5131C85.4564 27.3378 85.2896 27.2083 85.0229 27.1194C85.0229 27.0635 85.0229 27.0076 85.0229 26.95C84.8908 26.8205 84.8908 26.8205 84.7215 26.6859C84.4031 26.4175 84.1381 26.1296 83.8748 25.8078C83.835 25.7655 83.7943 25.724 83.7529 25.68C83.697 25.68 83.6411 25.68 83.5835 25.68C83.5556 25.5962 83.5276 25.5124 83.4988 25.426C83.443 25.426 83.3871 25.426 83.3295 25.426C83.3066 25.3794 83.2838 25.332 83.2609 25.2837C83.1509 25.0695 83.0391 24.8646 82.9062 24.664C82.8503 24.664 82.7944 24.664 82.7368 24.664C82.7072 24.5988 82.7072 24.5988 82.6776 24.5319C82.5277 24.2516 82.3448 23.9951 82.1653 23.7326C81.841 23.2551 81.565 22.7742 81.3169 22.2509C81.2119 22.0248 81.2119 22.0248 81.0324 21.7802C80.8403 21.4787 80.7361 21.1739 80.6201 20.8361C80.5439 20.6253 80.4575 20.4271 80.361 20.2248C80.1874 19.848 80.0935 19.4628 80.0029 19.0589C79.9495 18.8252 79.9495 18.8252 79.8615 18.6229C79.643 18.0674 79.5584 17.4832 79.472 16.8956C79.4508 16.7551 79.4288 16.6145 79.4077 16.474C79.3941 16.3817 79.3941 16.3817 79.3806 16.2885C79.3501 16.1141 79.3086 15.9456 79.2654 15.7737C78.2824 15.7721 77.2994 15.7704 76.3164 15.7695C75.8592 15.7695 75.402 15.7687 74.9448 15.7678C73.0101 15.7636 71.0771 15.7704 69.1433 15.8085Z" fill="url(#paint1_linear_35_1325)"/>
<path d="M68.3984 18.3744C69.1833 18.3736 69.969 18.371 70.7539 18.3676C71.3178 18.3651 71.8825 18.3642 72.4464 18.3634C72.7792 18.3634 73.1119 18.3625 73.4446 18.3609C73.7537 18.3583 74.0627 18.3583 74.3718 18.3592C74.5377 18.3592 74.7037 18.3575 74.8696 18.3558C75.7299 18.3609 76.4157 18.5827 77.0642 19.161C77.4402 19.5513 77.5858 20.0017 77.7441 20.5123C77.8931 20.9822 78.0862 21.4335 78.2801 21.8856C78.319 21.9771 78.3571 22.0676 78.3978 22.1616C78.4333 22.2455 78.4697 22.3284 78.507 22.4148C78.5883 22.6324 78.5883 22.6324 78.5883 22.8864C78.6442 22.8864 78.7 22.8864 78.7576 22.8864C78.7873 22.9634 78.8169 23.0396 78.8474 23.1192C79.0184 23.5256 79.2529 23.894 79.4832 24.269C79.6043 24.4951 79.6043 24.4951 79.6043 24.7491C79.6602 24.7491 79.7161 24.7491 79.7736 24.7491C79.8896 24.9142 79.8896 24.9142 80.0277 25.1462C80.7566 26.3231 81.6728 27.3307 82.6465 28.3103C82.7032 28.367 82.7591 28.4237 82.8166 28.4822C82.8962 28.5609 82.8962 28.5609 82.9775 28.6413C83.0249 28.6887 83.0723 28.7362 83.1206 28.7853C83.2434 28.9063 83.2434 28.9063 83.4144 28.9825C83.4144 29.0384 83.4144 29.0943 83.4144 29.1519C83.4593 29.1714 83.5041 29.1908 83.5499 29.2112C83.8174 29.3559 84.0486 29.5414 84.2873 29.7285C84.3855 29.8055 84.4846 29.8817 84.5828 29.9588C84.6302 29.9952 84.6768 30.0316 84.7251 30.0688C85.0494 30.3186 85.3702 30.5506 85.7318 30.7445C86.3812 31.1128 86.8773 31.581 87.1559 32.2812C87.3811 33.1271 87.288 34.4437 86.8858 35.248C86.8723 35.4021 86.8723 35.4021 86.8587 35.5605C86.8164 35.9931 86.7012 36.4004 86.5844 36.8178C86.5073 37.0989 86.4396 37.3715 86.4091 37.6611C86.3312 38.3859 86.0561 39.2097 85.5311 39.7355C85.1052 40.0564 84.7691 40.1334 84.2365 40.1123C83.7514 40.0318 83.4102 39.7592 83.0859 39.4019C82.7379 38.9007 82.7218 38.545 82.8217 37.9574C82.8344 37.8431 82.8463 37.728 82.8581 37.6137C82.9149 37.2174 83.0131 36.8517 83.1545 36.4774C83.2832 36.0532 83.3475 35.6214 83.4195 35.1845C83.4483 35.0084 83.4779 34.8323 83.5067 34.6562C83.5262 34.5402 83.5262 34.5402 83.5456 34.4217C83.5837 34.232 83.5837 34.232 83.6684 34.0627C83.7031 33.8121 83.7031 33.8121 83.6684 33.5547C83.5058 33.4048 83.5058 33.4048 83.3297 33.3007C83.3297 33.2448 83.3297 33.1889 83.3297 33.1313C83.2832 33.1237 83.2366 33.1169 83.1883 33.1093C82.3594 32.8468 81.5652 31.9443 80.9192 31.3787C80.7973 31.2754 80.6703 31.1772 80.5433 31.0798C80.4849 31.0298 80.4264 30.9807 80.3663 30.9299C80.3663 30.874 80.3663 30.8182 80.3663 30.7606C80.3121 30.7377 80.2579 30.7149 80.2021 30.692C80.0276 30.5913 80.0277 30.5913 79.943 30.3372C79.8871 30.3372 79.8312 30.3372 79.7736 30.3372C79.6356 30.2204 79.6356 30.2204 79.5196 30.0832C79.5196 30.0274 79.5196 29.9715 79.5196 29.9139C79.4638 29.9139 79.4079 29.9139 79.3503 29.9139C79.2174 29.7708 79.0912 29.621 78.9693 29.4694C78.9016 29.3864 78.8347 29.3043 78.7652 29.2196C78.623 29.0291 78.5129 28.8598 78.4189 28.6439C78.3631 28.6439 78.3072 28.6439 78.2496 28.6439C78.1463 28.5262 78.1463 28.5262 78.0312 28.3619C77.9888 28.3018 77.9465 28.2417 77.9033 28.179C77.8584 28.1147 77.8136 28.0495 77.7678 27.9826C77.7221 27.9166 77.6764 27.8505 77.629 27.7828C77.2861 27.2875 76.955 26.7871 76.6409 26.2731C76.5943 26.1978 76.5486 26.1233 76.5012 26.0462C75.8789 25.0226 75.8789 25.0226 75.8789 24.6644C75.823 24.6644 75.7671 24.6644 75.7095 24.6644C75.4564 24.1285 75.2269 23.5908 75.0305 23.032C74.9196 22.7255 74.796 22.425 74.6707 22.1244C74.6088 21.955 74.6088 21.955 74.6088 21.7857C74.558 21.7882 74.5081 21.7908 74.4556 21.7933C73.117 21.8577 71.7818 21.8839 70.4414 21.8873C70.2366 21.8882 70.0325 21.889 69.8276 21.8898C69.2789 21.8924 68.7303 21.8941 68.1816 21.8958C67.6643 21.8975 67.147 21.9 66.6297 21.9017C65.6069 21.9059 64.5832 21.9093 63.5604 21.9127C62.5681 21.9161 61.5758 21.9195 60.5835 21.9237C60.4912 21.9237 60.4912 21.9237 60.3972 21.9246C60.089 21.9254 59.7808 21.9263 59.4726 21.9279C56.9258 21.9373 54.3789 21.9466 51.8329 21.955C51.7906 22.0744 51.7906 22.0744 51.7474 22.1955C51.7102 22.3013 51.6729 22.4063 51.634 22.5147C51.5976 22.6188 51.5603 22.7221 51.5222 22.8297C51.2784 23.5002 51.0006 24.1505 50.6738 24.7847C50.5697 24.9896 50.4681 25.1953 50.3673 25.4011C49.7704 26.594 49.0465 27.7049 48.2218 28.7523C48.1126 28.8903 48.0059 29.03 47.8984 29.1697C47.5631 29.6023 47.5631 29.6023 47.4302 29.7446C47.3743 29.7446 47.3184 29.7446 47.2608 29.7446C47.2397 29.792 47.2185 29.8385 47.1973 29.8877C47.072 30.1188 46.9272 30.3102 46.7528 30.5066C46.6969 30.5066 46.6411 30.5066 46.5835 30.5066C46.5555 30.5904 46.5276 30.6742 46.4988 30.7606C46.4429 30.7606 46.387 30.7606 46.3295 30.7606C46.3295 30.8165 46.3295 30.8724 46.3295 30.9299C46.2736 30.9299 46.2177 30.9299 46.1601 30.9299C46.1322 31.0138 46.1043 31.0976 46.0755 31.1839C46.0196 31.1839 45.9637 31.1839 45.9061 31.1839C45.9061 31.2398 45.9061 31.2957 45.9061 31.3533C45.7817 31.4811 45.7817 31.4811 45.62 31.6174C45.5666 31.6632 45.5141 31.7089 45.4591 31.7563C45.3134 31.8613 45.3134 31.8613 45.1441 31.8613C45.1441 31.9172 45.1441 31.973 45.1441 32.0306C44.9672 32.1822 44.7902 32.3244 44.6039 32.4641C44.5277 32.5242 44.5277 32.5242 44.449 32.5844C44.0654 32.8773 44.0654 32.8773 43.8741 32.8773C43.8741 32.9332 43.8741 32.9891 43.8741 33.0466C43.7132 33.1745 43.7132 33.1745 43.5032 33.3108C43.4346 33.3565 43.3661 33.4023 43.2949 33.4497C43.1121 33.5547 43.1121 33.5547 42.9427 33.5547C42.9427 33.6105 42.9427 33.6664 42.9427 33.724C42.8868 33.724 42.831 33.724 42.7734 33.724C42.9935 34.8687 43.2382 35.9999 43.5473 37.1243C43.9757 38.7093 43.9757 38.7093 43.6412 39.4341C43.3576 39.9175 43.0579 40.1487 42.5194 40.3282C41.9326 40.4052 41.4822 40.2418 40.9953 39.9048C40.9674 39.821 40.9395 39.7372 40.9107 39.6508C40.8548 39.6508 40.7989 39.6508 40.7413 39.6508C40.5203 39.1978 40.3586 38.7703 40.2663 38.2749C40.2469 38.1251 40.2469 38.1251 40.1487 38.0421C40.1207 37.921 40.0962 37.7991 40.0741 37.6772C40.0106 37.341 39.9336 37.0125 39.8464 36.6823C39.7524 36.3132 39.6948 35.9593 39.661 35.5816C39.6313 35.3463 39.5475 35.1337 39.4713 34.9094C39.2562 34.0398 39.0869 33.0043 39.556 32.2C39.6025 32.1161 39.65 32.0323 39.6982 31.946C40.13 31.3863 40.6744 31.0239 41.2705 30.6556C41.7108 30.3728 42.1113 30.0409 42.5135 29.7073C42.6887 29.5752 42.6887 29.5752 42.8581 29.5752C42.8581 29.5193 42.8581 29.4635 42.8581 29.4059C43.3212 28.9825 43.3212 28.9825 43.5354 28.9825C43.5574 28.9284 43.5803 28.8742 43.604 28.8183C43.7047 28.6439 43.7047 28.6439 43.9587 28.5592C43.9867 28.5033 44.0146 28.4474 44.0434 28.3899C44.1281 28.2205 44.1281 28.2205 44.3821 28.1359C44.471 27.9792 44.471 27.9792 44.5514 27.7972C44.6784 27.6067 44.6784 27.6067 44.8054 27.4585C44.8613 27.4585 44.9172 27.4585 44.9748 27.4585C44.9942 27.4136 45.0129 27.3688 45.0332 27.3222C45.2076 27.003 45.4413 26.7287 45.6682 26.4459C45.9239 26.1207 46.1313 25.7897 46.3295 25.4265C46.3854 25.4265 46.4412 25.4265 46.4988 25.4265C46.4988 25.3426 46.4988 25.2588 46.4988 25.1725C46.5547 25.1725 46.6106 25.1725 46.6681 25.1725C46.6766 25.1242 46.6859 25.0768 46.6952 25.0277C46.7613 24.8033 46.8603 24.639 46.9857 24.4418C47.3658 23.822 47.6774 23.1861 47.9382 22.5071C48.0025 22.3454 48.0711 22.1853 48.1422 22.027C48.2481 21.7815 48.3327 21.5334 48.4132 21.2777C48.4369 21.2023 48.4606 21.1278 48.4843 21.0499C48.5326 20.895 48.58 20.7409 48.6265 20.5859C48.8687 19.8239 49.2573 19.2152 49.9702 18.8223C50.4046 18.6072 50.7551 18.531 51.242 18.5327C51.308 18.5319 51.3732 18.5319 51.4409 18.531C51.6585 18.5285 51.8761 18.5285 52.0929 18.5276C52.2495 18.5268 52.4053 18.5251 52.5619 18.5243C52.976 18.52 53.3908 18.5183 53.8049 18.5166C54.4484 18.5133 55.0918 18.5082 55.7353 18.5031C55.9876 18.5014 56.24 18.4997 56.4914 18.498C57.7047 18.4895 58.918 18.4701 60.1305 18.4464C62.8865 18.3947 65.6424 18.3778 68.3984 18.3744Z" fill="url(#paint2_linear_35_1325)"/>
<path d="M83.1098 43.777C83.2723 43.9066 83.3341 44.0327 83.4137 44.2232C83.4696 44.2232 83.5255 44.2232 83.5831 44.2232C83.9014 44.7008 83.9048 45.1859 83.8371 45.7473C83.7727 45.9327 83.694 46.0876 83.5949 46.257C83.4882 46.4416 83.4154 46.627 83.3401 46.8268C83.18 47.2358 82.9878 47.6227 82.7846 48.0122C82.6763 48.2365 82.5848 48.4575 82.4951 48.6895C82.3181 49.1383 82.0963 49.5514 81.8584 49.9697C81.6044 50.4218 81.3546 50.8714 81.1336 51.3405C80.7992 52.0272 80.3673 52.6613 79.9525 53.3006C79.8543 53.4521 79.8542 53.4521 79.773 53.6215C79.7171 53.6215 79.6612 53.6215 79.6036 53.6215C79.5918 53.6901 79.5918 53.6901 79.5799 53.7603C79.5012 54.0186 79.3733 54.2184 79.2286 54.447C79.1761 54.53 79.1236 54.6138 79.0702 54.6993C79.0228 54.7628 78.9754 54.8263 78.9263 54.8915C78.8704 54.8915 78.8145 54.8915 78.7569 54.8915C78.7569 54.9753 78.7569 55.0592 78.7569 55.1455C78.7011 55.1455 78.6452 55.1455 78.5876 55.1455C78.5614 55.2116 78.536 55.2776 78.5089 55.3462C78.4183 55.5689 78.4183 55.5689 78.3336 55.7382C78.2777 55.7382 78.2218 55.7382 78.1643 55.7382C78.138 55.8042 78.1126 55.8703 78.0855 55.9389C77.9949 56.1615 77.9949 56.1615 77.9103 56.3309C77.8544 56.3309 77.7985 56.3309 77.7409 56.3309C77.7189 56.3783 77.696 56.4257 77.6723 56.4748C77.5648 56.6823 77.4454 56.8753 77.3176 57.0717C77.2524 57.1725 77.2524 57.1725 77.1855 57.2766C77.1254 57.3528 77.1254 57.3528 77.0636 57.4316C77.0077 57.4316 76.9518 57.4316 76.8942 57.4316C76.8722 57.4798 76.8494 57.5281 76.8256 57.578C76.7215 57.7762 76.6047 57.9497 76.4709 58.1301C76.4277 58.1894 76.3837 58.2495 76.3388 58.3113C76.2787 58.3782 76.2787 58.3782 76.2169 58.4476C76.161 58.4476 76.1051 58.4476 76.0475 58.4476C76.0196 58.5314 75.9917 58.6152 75.9629 58.7016C75.907 58.7016 75.8511 58.7016 75.7935 58.7016C75.7715 58.7499 75.7487 58.799 75.7249 58.8498C75.6217 59.0445 75.5141 59.2113 75.3702 59.379C75.3143 59.379 75.2584 59.379 75.2008 59.379C75.1797 59.4281 75.1585 59.4772 75.1365 59.528C75.0197 59.7396 74.8893 59.8734 74.714 60.0402C74.4973 60.251 74.2924 60.4619 74.1002 60.6964C73.8656 60.9767 73.6023 61.2103 73.3237 61.4466C73.1569 61.5871 73.1569 61.5871 72.9681 61.7861C72.8301 61.919 72.8301 61.919 72.6608 61.919C72.6608 61.9749 72.6608 62.0308 72.6608 62.0884C72.5219 62.2314 72.5219 62.2314 72.3382 62.3898C72.2781 62.4423 72.2188 62.4948 72.157 62.549C71.9834 62.681 71.9834 62.681 71.7294 62.7657C71.7294 62.8216 71.7294 62.8775 71.7294 62.935C71.5508 63.0993 71.5508 63.0993 71.3171 63.2839C71.2019 63.3762 71.2019 63.3762 71.0851 63.4701C70.8827 63.6124 70.8827 63.6124 70.7134 63.6124C70.7134 63.6683 70.7134 63.7242 70.7134 63.7817C70.5483 63.9164 70.5483 63.9164 70.3172 64.0781C70.0013 64.3007 69.6915 64.5268 69.3875 64.7656C68.8456 65.1915 68.2843 65.5784 67.7085 65.956C67.4562 66.1211 67.2115 66.2938 66.9668 66.47C66.618 66.7163 66.2556 66.9221 65.8771 67.1219C65.5258 67.3107 65.1837 67.5139 64.8399 67.7171C64.1956 68.0888 63.5166 68.171 62.7749 68.0685C62.4709 67.9821 62.2245 67.8204 61.9603 67.6494C61.4312 67.3082 60.8656 67.0203 60.2991 66.7451C60.2991 66.6893 60.2991 66.6334 60.2991 66.5758C60.2509 66.5648 60.2018 66.5546 60.151 66.5436C59.9588 66.4903 59.7979 66.4158 59.6218 66.3218C59.6218 66.2659 59.6218 66.21 59.6218 66.1525C59.5735 66.1423 59.5253 66.133 59.4753 66.1228C59.2653 66.0619 59.1087 65.9763 58.9233 65.8612C58.864 65.8248 58.8039 65.7875 58.7421 65.7503C58.6972 65.7156 58.6523 65.68 58.6058 65.6444C58.6058 65.5886 58.6058 65.5327 58.6058 65.4751C58.522 65.4751 58.4381 65.4751 58.3518 65.4751C58.3518 65.4192 58.3518 65.3633 58.3518 65.3058C58.2908 65.2838 58.2298 65.2617 58.1672 65.2389C57.9166 65.1305 57.7244 65.0027 57.5051 64.8401C57.4246 64.78 57.3442 64.7207 57.2612 64.6589C56.8853 64.3736 56.5111 64.0874 56.1377 63.7978C55.9929 63.6861 55.8456 63.576 55.6949 63.471C55.65 63.4337 55.6043 63.3965 55.5577 63.3584C55.5577 63.3025 55.5577 63.2466 55.5577 63.189C55.4459 63.1611 55.3342 63.1332 55.219 63.1044C55.219 63.0485 55.219 62.9926 55.219 62.935C55.1708 62.9122 55.1216 62.8893 55.0708 62.8656C54.8761 62.7632 54.7093 62.6548 54.5417 62.5117C54.5417 62.4558 54.5417 62.3999 54.5417 62.3424C54.4917 62.3195 54.4418 62.2966 54.3901 62.2729C54.2038 62.173 54.0743 62.0706 53.9219 61.9258C53.8686 61.8758 53.8152 61.8259 53.7602 61.7751C53.6755 61.6938 53.6755 61.6938 53.5891 61.6117C53.5019 61.5287 53.5019 61.5287 53.4122 61.4432C52.966 61.019 52.5249 60.5897 52.0863 60.1562C51.9974 60.069 51.9974 60.069 51.9068 59.9801C51.8526 59.9259 51.7984 59.8717 51.7425 59.8158C51.6943 59.7684 51.646 59.7202 51.5969 59.6711C51.4936 59.5483 51.4936 59.5483 51.4936 59.379C51.4377 59.379 51.3818 59.379 51.3243 59.379C51.1786 59.2367 51.1786 59.2367 51.0178 59.0504C50.9644 58.9895 50.9111 58.9285 50.8552 58.8659C50.7316 58.7016 50.7316 58.7016 50.7316 58.5323C50.6757 58.5323 50.6198 58.5323 50.5622 58.5323C50.4335 58.39 50.3116 58.2427 50.1922 58.0928C50.127 58.0115 50.0618 57.9294 49.9941 57.8456C49.9306 57.7643 49.8663 57.6839 49.8002 57.6009C49.7045 57.4858 49.7045 57.4858 49.6063 57.3689C49.4615 57.1776 49.4615 57.1776 49.4615 57.0082C49.4057 57.0082 49.3498 57.0082 49.2922 57.0082C49.1652 56.866 49.1652 56.866 49.028 56.6797C48.9823 56.6187 48.9366 56.5578 48.89 56.4951C48.7842 56.3309 48.7842 56.3309 48.7842 56.1615C48.7283 56.1615 48.6724 56.1615 48.6149 56.1615C48.3608 55.7898 48.3608 55.7898 48.3608 55.5689C48.305 55.5689 48.2491 55.5689 48.1915 55.5689C48.1915 55.485 48.1915 55.4012 48.1915 55.3148C48.1356 55.3148 48.0797 55.3148 48.0222 55.3148C47.8283 55.0973 47.7682 55.0202 47.7682 54.7222C47.7123 54.7222 47.6564 54.7222 47.5988 54.7222C47.4557 54.53 47.4557 54.53 47.2974 54.2777C47.2187 54.1532 47.2187 54.1532 47.1382 54.027C47.0265 53.8272 46.9604 53.6748 46.9215 53.4521C46.8656 53.4521 46.8097 53.4521 46.7521 53.4521C46.648 53.3099 46.648 53.3099 46.5312 53.1109C46.4888 53.0381 46.4456 52.9661 46.4016 52.8908C46.3567 52.8146 46.3119 52.7375 46.2653 52.6579C46.2221 52.5843 46.1789 52.5106 46.1341 52.4344C46.046 52.2854 45.9579 52.1355 45.8699 51.9848C45.7361 51.7588 45.6006 51.5335 45.4643 51.3083C45.2933 51.0238 45.1341 50.7393 44.9902 50.4405C44.7794 50.0112 44.5592 49.5879 44.334 49.1654C43.9504 48.4423 43.5728 47.7294 43.279 46.9631C43.2011 46.7743 43.1105 46.6024 43.0115 46.4246C42.7659 45.9446 42.7422 45.4594 42.815 44.9319C43.0267 44.4561 43.3561 44.0878 43.7887 43.7999C45.0435 43.6687 45.0435 43.6687 45.4982 43.9692C45.952 44.3909 46.184 44.9353 46.4016 45.5034C46.7352 46.3417 47.1501 47.1435 47.5768 47.9368C47.7614 48.2814 47.9383 48.6277 48.1068 48.9799C48.349 49.4702 48.6403 49.9214 48.9417 50.3761C49.1263 50.6631 49.2939 50.9536 49.4615 51.2508C49.8425 51.8765 50.2557 52.4801 50.6774 53.0796C50.7163 53.1355 50.7544 53.1905 50.7951 53.2481C50.8298 53.2972 50.8645 53.3471 50.9001 53.3979C50.9856 53.5368 50.9856 53.5368 51.0702 53.7908C51.1261 53.7908 51.182 53.7908 51.2396 53.7908C51.3827 53.9745 51.5165 54.1591 51.6477 54.3513C51.8627 54.6637 52.0778 54.9702 52.3259 55.2581C52.5096 55.4842 52.5096 55.4842 52.5096 55.6535C52.5934 55.6815 52.6773 55.7094 52.7636 55.7382C52.8966 55.8847 53.0227 56.0371 53.1446 56.1929C53.3978 56.5163 53.3978 56.5163 53.6772 56.8152C53.7796 56.9236 53.7796 56.9236 53.7796 57.0929C53.8635 57.1208 53.9473 57.1488 54.0337 57.1776C54.0337 57.2334 54.0337 57.2893 54.0337 57.3469C54.0895 57.3469 54.1454 57.3469 54.203 57.3469C54.3342 57.4798 54.3342 57.4798 54.4841 57.6585C54.7186 57.9345 54.9599 58.1944 55.219 58.4476C55.2927 58.5221 55.3663 58.5975 55.4417 58.6745C55.6398 58.8803 55.6398 58.8803 55.8964 59.0403C55.8964 59.0962 55.8964 59.152 55.8964 59.2096C55.9438 59.2291 55.9903 59.2486 56.0386 59.2689C56.2884 59.4077 56.4713 59.5847 56.6796 59.7811C57.0148 60.0919 57.3518 60.3755 57.7286 60.6354C57.7862 60.6837 57.7862 60.6837 57.8438 60.7337C57.8438 60.7895 57.8438 60.8454 57.8438 60.903C57.9123 60.9343 57.9123 60.9343 57.9818 60.9665C58.2324 61.0977 58.4618 61.2442 58.6904 61.411C58.6904 61.4669 58.6904 61.5228 58.6904 61.5803C58.7489 61.599 58.8064 61.6176 58.8666 61.6371C59.1773 61.7776 59.4254 61.9783 59.6912 62.1883C60.2788 62.6421 60.8918 63.0451 61.5218 63.4371C61.6073 63.4905 61.6919 63.5438 61.78 63.598C62.0196 63.7453 62.2601 63.891 62.5005 64.0357C62.5717 64.0789 62.6436 64.1221 62.7164 64.167C62.8155 64.2254 62.8155 64.2254 62.9163 64.2847C63.0018 64.3355 63.0018 64.3355 63.089 64.3871C63.3057 64.476 63.4539 64.4836 63.6859 64.4591C63.8645 64.3837 63.8645 64.3837 64.0322 64.2694C64.1279 64.2076 64.1279 64.2076 64.2269 64.145C64.2947 64.1001 64.3624 64.0552 64.4327 64.0086C64.5038 63.9629 64.5749 63.9172 64.6477 63.8698C64.8645 63.7284 65.0795 63.5861 65.2946 63.4431C65.3564 63.4016 65.4182 63.3601 65.4817 63.3177C66.176 62.8529 66.8559 62.3686 67.5222 61.864C67.9016 61.5803 67.9016 61.5803 68.0887 61.5803C68.0887 61.5245 68.0887 61.4686 68.0887 61.411C68.2309 61.2832 68.2309 61.2831 68.4172 61.146C68.4782 61.1003 68.5391 61.0545 68.6018 61.008C68.766 60.903 68.766 60.903 68.9354 60.903C68.9354 60.8471 68.9354 60.7912 68.9354 60.7337C69.3993 60.3103 69.3993 60.3103 69.6127 60.3103C69.6127 60.2544 69.6127 60.1985 69.6127 60.141C69.7363 60.0131 69.7363 60.0131 69.8989 59.876C69.9522 59.8302 70.0047 59.7845 70.0598 59.7379C70.2054 59.633 70.2054 59.633 70.3747 59.633C70.3747 59.5771 70.3747 59.5212 70.3747 59.4636C70.5144 59.3256 70.5144 59.3256 70.6982 59.1724C70.953 58.9573 70.953 58.9573 71.1909 58.7245C71.3061 58.6169 71.3061 58.6169 71.4754 58.6169C71.5017 58.5492 71.5017 58.5492 71.5279 58.4798C71.6939 58.1936 71.9208 57.9878 72.1587 57.7592C72.4923 57.457 72.4923 57.457 72.7455 57.0929C72.8013 57.0929 72.8572 57.0929 72.9148 57.0929C72.9453 57.0235 72.9453 57.0235 72.9758 56.9532C73.1138 56.7 73.2831 56.4901 73.4651 56.2674C73.5329 56.1836 73.5998 56.1006 73.6692 56.0142C73.7276 55.9507 73.786 55.8881 73.8462 55.8229C73.902 55.8229 73.9579 55.8229 74.0155 55.8229C74.0477 55.7534 74.0477 55.7534 74.079 55.6832C74.2085 55.4393 74.3626 55.2217 74.5235 54.9973C74.5836 54.9135 74.6429 54.8305 74.7038 54.7442C74.7563 54.6807 74.8088 54.618 74.8622 54.5528C74.9181 54.5528 74.9739 54.5528 75.0315 54.5528C75.051 54.4936 75.0705 54.4351 75.0908 54.3742C75.2246 54.077 75.4108 53.8408 75.614 53.5893C75.9112 53.2201 76.1593 52.8527 76.3862 52.4361C76.4421 52.4361 76.498 52.4361 76.5556 52.4361C76.5649 52.3879 76.5742 52.3404 76.5826 52.2905C76.6504 52.0627 76.752 51.9035 76.8841 51.7054C77.1669 51.2702 77.4429 50.8308 77.7147 50.388C77.7739 50.2931 77.7739 50.2931 77.8341 50.1958C78.0483 49.8461 78.2447 49.4939 78.4242 49.1256C78.5495 48.8707 78.6858 48.6218 78.8204 48.372C79.3691 47.3492 79.889 46.3298 80.2903 45.2393C80.5528 44.5602 80.8517 44.0564 81.4511 43.6306C82.0472 43.4434 82.5569 43.4917 83.1098 43.777Z" fill="url(#paint3_linear_35_1325)"/>
<path d="M73.0792 31.4696C73.1698 31.4713 73.1698 31.4713 73.2612 31.4739C73.6541 31.4933 73.9512 31.5323 74.2417 31.8041C74.6337 32.2977 74.842 32.7126 74.8098 33.3535C74.7624 33.6507 74.6625 33.881 74.5236 34.1469C74.4677 34.1469 74.4118 34.1469 74.3543 34.1469C74.3483 34.1909 74.3424 34.2349 74.3356 34.2806C74.2417 34.5753 74.0681 34.8107 73.8937 35.063C73.8166 35.1773 73.7387 35.2916 73.6617 35.4059C73.6024 35.4931 73.6024 35.4931 73.5415 35.582C73.3586 35.8504 73.1791 36.1205 72.9996 36.3906C72.7811 36.7199 72.5618 37.0485 72.3408 37.3761C72.3027 37.4337 72.2638 37.4913 72.224 37.5505C72.1503 37.6598 72.0767 37.7698 72.003 37.8791C71.8379 38.1246 71.683 38.3659 71.5602 38.6343C71.5043 38.6343 71.4484 38.6343 71.3909 38.6343C71.3621 38.7215 71.3621 38.7215 71.3333 38.8096C71.2147 39.0746 71.0683 39.2812 70.893 39.5115C70.7821 39.6613 70.7821 39.6613 70.7135 39.9043C70.6576 39.9043 70.6018 39.9043 70.5442 39.9043C70.5239 39.9628 70.5027 40.0203 70.4807 40.0796C70.3545 40.3759 70.1996 40.6427 70.0362 40.9204C69.9803 40.9204 69.9244 40.9204 69.8668 40.9204C69.8668 41.005 69.8668 41.0889 69.8668 41.1744C69.8109 41.1744 69.7551 41.1744 69.6975 41.1744C69.6882 41.2235 69.678 41.2717 69.6679 41.3217C69.6077 41.5317 69.5222 41.6883 69.4062 41.8737C69.3698 41.933 69.3334 41.9931 69.2962 42.0549C69.2437 42.1218 69.2437 42.1218 69.1895 42.1904C69.1336 42.1904 69.0777 42.1904 69.0201 42.1904C69.0057 42.2649 69.0057 42.2649 68.9905 42.3403C68.9321 42.5426 68.8533 42.6772 68.7348 42.8517C68.6933 42.9126 68.6527 42.9736 68.6103 43.0362C68.5655 43.1014 68.5214 43.1666 68.4749 43.2335C68.3817 43.3715 68.2886 43.5087 68.1955 43.6467C68.1489 43.7153 68.1023 43.7839 68.0541 43.855C67.8627 44.1369 67.6747 44.4206 67.4859 44.7042C67.4174 44.8075 67.3488 44.9108 67.2793 45.0133C67.2455 45.0641 67.2125 45.1149 67.1769 45.1674C67.0694 45.3291 66.961 45.4908 66.8526 45.6517C66.7798 45.7609 66.707 45.8701 66.6342 45.9802C66.5986 46.0327 66.5631 46.0852 66.5266 46.1393C66.2667 46.5305 66.0144 46.9251 65.7663 47.3247C65.6215 47.5432 65.459 47.7438 65.2947 47.9479C65.2117 48.091 65.1279 48.2341 65.0475 48.3788C64.9459 48.56 64.8409 48.7387 64.7342 48.9165C64.6995 48.9741 64.6656 49.0316 64.6301 49.0909C64.5979 49.1332 64.5657 49.1747 64.5327 49.2179C64.4768 49.2179 64.4209 49.2179 64.3634 49.2179C64.3549 49.2662 64.3473 49.3144 64.3388 49.3635C64.1822 49.8707 63.7038 50.3796 63.2627 50.6573C62.7496 50.8198 62.2305 50.7826 61.7386 50.5726C61.306 50.333 60.9927 50.0053 60.6489 49.6523C60.4627 49.4601 60.4627 49.4601 60.2095 49.2662C60.1553 49.2221 60.1011 49.179 60.0452 49.1332C60.0452 49.0782 60.0452 49.0223 60.0452 48.9639C59.9911 48.9419 59.9369 48.919 59.881 48.8953C59.7066 48.7946 59.7066 48.7946 59.6219 48.5406C59.5101 48.4821 59.3975 48.4263 59.2832 48.3712C59.1266 48.2281 59.1266 48.2281 58.9767 48.0698C58.7718 47.8513 58.7718 47.8514 58.5212 47.6939C58.5212 47.6388 58.5212 47.583 58.5212 47.5245C58.4653 47.5245 58.4094 47.5245 58.3519 47.5245C58.2147 47.4085 58.2147 47.4085 58.0979 47.2705C58.0979 47.2155 58.0979 47.1596 58.0979 47.1012C58.0496 47.0809 58.0005 47.0597 57.9505 47.0385C57.7296 46.9158 57.5848 46.771 57.4104 46.5881C57.1851 46.3468 57.1851 46.3468 56.9125 46.1698C56.9125 46.1148 56.9125 46.0589 56.9125 46.0005C56.8287 45.9725 56.7449 45.9455 56.6585 45.9158C56.6585 45.8608 56.6585 45.8049 56.6585 45.7465C56.6102 45.7262 56.562 45.7058 56.512 45.6847C56.2843 45.5577 56.1352 45.4061 55.9549 45.2182C55.717 44.9726 55.4782 44.7415 55.214 44.5247C55.1319 44.4527 55.0498 44.3816 54.9651 44.3071C54.9651 44.2521 54.9651 44.1962 54.9651 44.1378C54.8813 44.1098 54.7975 44.0827 54.7111 44.0531C54.7111 43.9981 54.7111 43.9422 54.7111 43.8838C54.6552 43.8838 54.5994 43.8838 54.5418 43.8838C54.2666 43.4943 54.1057 43.1319 54.1396 42.651C54.2539 42.1269 54.4334 41.8179 54.7958 41.4284C54.8517 41.4284 54.9075 41.4284 54.9651 41.4284C54.9651 41.3733 54.9651 41.3175 54.9651 41.259C55.2733 41.1185 55.5163 41.0668 55.8541 41.0694C55.932 41.0685 56.0099 41.0677 56.0895 41.0677C56.3351 41.0914 56.5205 41.1574 56.7432 41.259C56.7432 41.3149 56.7432 41.3708 56.7432 41.4284C56.7931 41.4512 56.8422 41.4733 56.893 41.497C57.0895 41.6019 57.2342 41.7188 57.3994 41.8678C57.5831 42.0329 57.766 42.1963 57.9539 42.3555C58.0157 42.408 58.0767 42.4596 58.1402 42.5138C58.1969 42.5612 58.2537 42.6087 58.3121 42.6578C58.4365 42.7831 58.4365 42.7831 58.4365 42.9524C58.4924 42.9524 58.5483 42.9524 58.6059 42.9524C58.7439 43.0693 58.7439 43.0693 58.8599 43.2064C58.8599 43.2623 58.8599 43.3182 58.8599 43.3758C58.9141 43.3986 58.9683 43.4215 59.0241 43.4452C59.1986 43.5451 59.1986 43.5451 59.2832 43.7991C59.395 43.8584 59.5084 43.9143 59.6219 43.9684C59.7785 44.1124 59.7785 44.1124 59.9292 44.2707C60.1341 44.4892 60.1341 44.4892 60.3839 44.6458C60.3839 44.7017 60.3839 44.7576 60.3839 44.8151C60.4381 44.838 60.4923 44.8609 60.5482 44.8846C60.7226 44.9845 60.7226 44.9845 60.8073 45.2385C60.9199 45.2969 61.0325 45.3528 61.1459 45.4078C61.2662 45.5187 61.3822 45.6339 61.4956 45.7524C61.72 45.9937 61.72 45.9937 61.9926 46.1698C61.9926 46.2257 61.9926 46.2816 61.9926 46.3392C62.2356 46.3112 62.3178 46.2714 62.4795 46.0826C62.5269 46.0098 62.5735 45.9378 62.6226 45.8633C62.6734 45.7863 62.725 45.7101 62.7775 45.6305C62.8258 45.5577 62.874 45.484 62.924 45.4078C62.9993 45.3037 63.0755 45.1995 63.1517 45.0962C63.3168 44.8659 63.4599 44.6263 63.598 44.3791C63.6987 44.2004 63.8028 44.0235 63.9087 43.8474C63.9426 43.7898 63.9773 43.7322 64.012 43.6729C64.0442 43.6306 64.0763 43.5891 64.1093 43.5451C64.1652 43.5451 64.2211 43.5451 64.2787 43.5451C64.2888 43.496 64.2982 43.4469 64.3083 43.3961C64.3676 43.1937 64.4455 43.0591 64.564 42.8847C64.6055 42.8237 64.647 42.7628 64.6893 42.7001C64.7334 42.6349 64.7782 42.5697 64.824 42.5028C64.9171 42.3657 65.0094 42.2285 65.1025 42.0913C65.1728 41.988 65.1728 41.988 65.2439 41.883C65.4403 41.5935 65.6351 41.3022 65.8298 41.011C65.8637 40.9593 65.8984 40.9077 65.934 40.8543C66.1914 40.4682 66.4411 40.0771 66.6858 39.6817C66.8187 39.4818 66.8187 39.4818 66.9839 39.2812C67.149 39.0695 67.2785 38.8536 67.4089 38.6191C67.5554 38.3617 67.7222 38.1178 67.8881 37.8723C67.9237 37.8189 67.9601 37.7648 67.9973 37.7089C68.1125 37.5378 68.2276 37.3668 68.3428 37.1949C68.4986 36.9646 68.6535 36.7335 68.8085 36.5023C68.844 36.449 68.8796 36.3965 68.9168 36.3423C69.0811 36.0968 69.236 35.8555 69.3588 35.5862C69.4147 35.5862 69.4706 35.5862 69.5281 35.5862C69.5569 35.4999 69.5569 35.4999 69.5866 35.4118C69.7051 35.1468 69.8507 34.9402 70.026 34.7099C70.1369 34.56 70.1369 34.56 70.2055 34.3162C70.2614 34.3162 70.3173 34.3162 70.3748 34.3162C70.4087 34.2256 70.4087 34.2256 70.4443 34.1333C70.5459 33.8895 70.6636 33.6702 70.7982 33.4433C70.8422 33.3688 70.8854 33.2942 70.9303 33.2172C70.9709 33.1605 71.0107 33.1046 71.0522 33.0462C71.1081 33.0462 71.164 33.0462 71.2215 33.0462C71.2393 32.9903 71.2571 32.9353 71.2749 32.8768C71.6339 32.0936 72.1698 31.4383 73.0792 31.4696Z" fill="url(#paint4_linear_35_1325)"/>
<path d="M21.2589 94.0068C21.4545 94.1075 21.4545 94.1075 21.7542 94.188C22.114 94.3175 22.3994 94.5402 22.7016 94.7705C22.7507 94.8078 22.7999 94.845 22.8498 94.8831C23.0818 95.0651 23.2037 95.1617 23.2994 95.4478C23.4247 95.4893 23.4247 95.4893 23.5534 95.5325C23.5534 95.5884 23.5534 95.6443 23.5534 95.7019C23.6093 95.7019 23.6652 95.7019 23.7227 95.7019C23.9166 95.9186 23.9768 95.9965 23.9768 96.2945C24.0326 96.2945 24.0885 96.2945 24.1461 96.2945C24.4035 96.7915 24.6524 97.2835 24.8234 97.8186C24.8404 97.8702 24.8582 97.9227 24.8759 97.9761C25.1553 98.9735 25.0732 100.153 24.7388 101.121C24.6964 101.245 24.6964 101.245 24.6541 101.372C24.3019 102.316 23.6592 103.191 22.8761 103.83C22.8202 103.83 22.7643 103.83 22.7067 103.83C22.7067 103.886 22.7067 103.942 22.7067 103.999C22.6229 103.999 22.5391 103.999 22.4527 103.999C22.4527 104.055 22.4527 104.111 22.4527 104.169C22.3062 104.25 22.1598 104.33 22.0133 104.412C21.8914 104.479 21.8914 104.479 21.766 104.549C20.54 105.187 19.0939 105.264 17.7629 104.945C16.9086 104.668 15.973 104.226 15.3405 103.576C15.3405 103.52 15.3405 103.464 15.3405 103.407C15.2847 103.407 15.2288 103.407 15.1712 103.407C14.7479 102.943 14.7479 102.943 14.7479 102.729C14.692 102.729 14.6361 102.729 14.5785 102.729C13.9765 101.936 13.6946 100.993 13.5625 100.02C13.5489 99.9344 13.5489 99.9344 13.5362 99.8481C13.4719 99.3824 13.4897 98.9726 13.5727 98.5112C13.5845 98.4451 13.5964 98.3791 13.6082 98.3105C13.9088 96.728 14.8156 95.447 16.1203 94.53C17.5174 93.6216 19.7221 93.2371 21.2589 94.0068ZM17.7959 97.4799C17.7959 97.5358 17.7959 97.5917 17.7959 97.6492C17.7223 97.6755 17.7223 97.6755 17.6478 97.7017C17.3853 97.8626 17.2752 98.065 17.1186 98.3266C17.0729 98.3977 17.0729 98.3977 17.0263 98.4714C16.8214 98.9862 16.857 99.7397 17.0288 100.263C17.2278 100.633 17.4818 100.924 17.7959 101.205C17.8518 101.261 17.9077 101.317 17.9653 101.375C18.0491 101.375 18.1329 101.375 18.2193 101.375C18.2193 101.431 18.2193 101.486 18.2193 101.544C18.9737 101.754 19.7035 101.767 20.4376 101.461C20.7119 101.304 20.894 101.106 21.098 100.867C21.098 100.811 21.098 100.755 21.098 100.697C21.1539 100.697 21.2098 100.697 21.2674 100.697C21.6585 100.05 21.6975 99.2232 21.5214 98.4959C21.4071 98.2487 21.2801 98.0218 21.098 97.8186C21.0421 97.8186 20.9863 97.8186 20.9287 97.8186C20.9287 97.7627 20.9287 97.7068 20.9287 97.6492C20.811 97.5392 20.811 97.5392 20.6586 97.4376C20.6086 97.4012 20.5587 97.3656 20.507 97.3283C19.6476 96.8102 18.6096 96.9431 17.7959 97.4799Z" fill="url(#paint5_linear_35_1325)"/>
<defs>
<linearGradient id="paint0_linear_35_1325" x1="63.2422" y1="12.408" x2="63.2422" y2="114.021" gradientUnits="userSpaceOnUse">
<stop stop-color="#FDC103"/>
<stop offset="0.425" stop-color="#FBE295"/>
<stop offset="0.75" stop-color="#FBDD7F"/>
<stop offset="1" stop-color="#FBCC36"/>
</linearGradient>
<linearGradient id="paint1_linear_35_1325" x1="63.2422" y1="12.408" x2="63.2422" y2="114.021" gradientUnits="userSpaceOnUse">
<stop stop-color="#FDC103"/>
<stop offset="0.425" stop-color="#FBE295"/>
<stop offset="0.75" stop-color="#FBDD7F"/>
<stop offset="1" stop-color="#FBCC36"/>
</linearGradient>
<linearGradient id="paint2_linear_35_1325" x1="63.2422" y1="12.408" x2="63.2422" y2="114.021" gradientUnits="userSpaceOnUse">
<stop stop-color="#FDC103"/>
<stop offset="0.425" stop-color="#FBE295"/>
<stop offset="0.75" stop-color="#FBDD7F"/>
<stop offset="1" stop-color="#FBCC36"/>
</linearGradient>
<linearGradient id="paint3_linear_35_1325" x1="63.2422" y1="12.408" x2="63.2422" y2="114.021" gradientUnits="userSpaceOnUse">
<stop stop-color="#FDC103"/>
<stop offset="0.425" stop-color="#FBE295"/>
<stop offset="0.75" stop-color="#FBDD7F"/>
<stop offset="1" stop-color="#FBCC36"/>
</linearGradient>
<linearGradient id="paint4_linear_35_1325" x1="63.2422" y1="12.408" x2="63.2422" y2="114.021" gradientUnits="userSpaceOnUse">
<stop stop-color="#FDC103"/>
<stop offset="0.425" stop-color="#FBE295"/>
<stop offset="0.75" stop-color="#FBDD7F"/>
<stop offset="1" stop-color="#FBCC36"/>
</linearGradient>
<linearGradient id="paint5_linear_35_1325" x1="63.2422" y1="12.408" x2="63.2422" y2="114.021" gradientUnits="userSpaceOnUse">
<stop stop-color="#FDC103"/>
<stop offset="0.425" stop-color="#FBE295"/>
<stop offset="0.75" stop-color="#FBDD7F"/>
<stop offset="1" stop-color="#FBCC36"/>
</linearGradient>
</defs>
</svg>
