<svg width="127" height="126" viewBox="0 0 127 126" fill="none" xmlns="http://www.w3.org/2000/svg">
<path d="M97.6671 25.7124C93.9776 29.2434 89.5888 31.9616 84.7839 33.6916C79.7173 34.5857 65.6962 28.0831 58.7872 34.7212C57.6357 35.8727 56.2133 37.0242 54.7231 38.1756C51.4718 36.7532 46.4594 34.5857 42.8017 32.4859C39.144 30.3861 29.9321 25.7124 29.9321 25.7124L9.61156 49.4197C9.61156 49.4197 14.624 56.1932 17.7398 60.6637C19.7718 63.644 22.278 68.1823 23.9036 71.2303L21.6007 73.9397C21.0491 75.0353 20.8507 76.2749 21.0327 77.4879C21.2146 78.7009 21.768 79.8277 22.6167 80.7132C23.5963 81.4476 24.7882 81.8435 26.0125 81.841C27.2368 81.8386 28.4271 81.438 29.4037 80.6997C29.0416 81.1237 28.7675 81.6156 28.5975 82.1466C28.4275 82.6777 28.3649 83.2373 28.4135 83.7928C28.462 84.3482 28.6207 84.8885 28.8803 85.382C29.1398 85.8755 29.4951 86.3124 29.9253 86.6671C30.9596 87.2712 32.1364 87.5884 33.3342 87.5861C34.532 87.5837 35.7075 87.2618 36.7394 86.6536C35.9655 87.6182 35.5421 88.817 35.5384 90.0537C35.5347 91.2904 35.951 92.4917 36.7191 93.461C37.7176 93.8066 38.7825 93.9168 39.8306 93.7828C40.8787 93.6489 41.8816 93.2745 42.7611 92.6888C42.3229 93.7258 42.2094 94.8713 42.4356 95.9741C42.6617 97.0769 43.2168 98.0853 44.0277 98.8662C45.1732 99.3752 46.4291 99.585 47.6778 99.476C48.9265 99.367 50.1271 98.9428 51.167 98.2431L54.6621 95.0798C57.8592 98.2634 62.2688 100.234 67.1389 100.234L67.5521 100.228C69.1571 100.091 70.6945 99.5197 71.9999 98.5759C73.3052 97.6321 74.3292 96.351 74.9623 94.8699C75.9512 95.2492 77.0756 95.5066 78.2678 95.5066C79.8663 95.5066 81.3497 95.046 82.6028 94.2535C86.5653 91.6321 85.617 89.6001 85.617 89.6001C87.026 90.2066 88.5911 90.3504 90.0871 90.0108C91.583 89.6712 92.9326 88.8657 93.9417 87.7103C94.9902 86.6376 95.6514 85.2461 95.8207 83.7557C95.9899 82.2653 95.6577 80.7609 94.8764 79.4805C94.9192 79.506 94.9689 79.5179 95.0186 79.5143C97.8703 79.5143 100.349 77.9429 101.643 75.6263C102.28 73.9799 102.495 72.2004 102.269 70.4497C102.043 68.699 101.383 67.0324 100.349 65.6016L100.37 65.6354C105.924 64.5517 105.721 61.7745 108.43 57.7104C110.996 54.3939 114.188 51.6138 117.825 49.528L97.6671 25.7124ZM97.3284 73.5333C94.3481 76.5137 92.0451 75.2267 86.965 71.3658C81.8848 67.5049 71.7923 60.2573 71.7923 60.2573C72.2055 62.3232 73.1606 64.1182 74.5085 65.5474C76.6692 67.9791 83.1041 73.5333 86.1521 76.3782C88.0487 78.1393 92.9256 81.6615 90.0808 84.3709C87.2359 87.0803 85.0006 84.3709 80.3269 80.5778C75.6532 76.7846 65.222 67.4372 65.222 67.4372C65.1645 68.3332 65.2978 69.2312 65.6131 70.0719C65.9284 70.9126 66.4184 71.6768 67.0509 72.3141C68.2024 73.6688 74.6372 79.9004 77.3466 82.7453C80.056 85.5902 82.4267 87.2835 80.1237 89.5188C77.8207 91.7541 73.147 88.2318 70.5731 85.5902C66.5767 81.7293 58.6517 74.5494 58.6517 74.5494L58.6449 74.9083C58.6449 76.832 59.3087 78.5931 60.4264 79.9885C62.3771 82.5489 66.1703 85.8679 68.4733 88.4418C70.7763 91.0157 72.131 93.1833 68.4733 95.2153C64.8156 97.2474 59.3968 92.235 57.0261 89.7965V89.783C57.0266 89.1139 56.7861 88.4671 56.3487 87.9609C55.5385 87.2103 54.5388 86.6951 53.4574 86.4707C52.376 86.2463 51.2539 86.3213 50.2119 86.6875C50.6406 86.3036 50.9843 85.8344 51.2208 85.3098C51.4574 84.7853 51.5815 84.217 51.5854 83.6416C51.5892 83.0662 51.4726 82.4964 51.243 81.9687C51.0135 81.4411 50.6761 80.9673 50.2526 80.5778C49.3635 79.9041 48.2782 79.5401 47.1627 79.5413C46.0472 79.5425 44.9628 79.9089 44.0751 80.5845C44.524 80.1558 44.8705 79.6315 45.0888 79.0505C45.3072 78.4695 45.3919 77.8467 45.3366 77.2285C45.2813 76.6103 45.0874 76.0125 44.7693 75.4795C44.4513 74.9465 44.0172 74.492 43.4994 74.1497C42.2868 73.3878 40.864 73.0298 39.4352 73.1272C38.0064 73.2246 36.6453 73.7722 35.5473 74.6916C36.2811 73.8022 36.6429 72.6636 36.5571 71.5137C36.4713 70.3638 35.9445 69.2916 35.0867 68.5209C34.0206 67.5287 32.6621 66.908 31.2142 66.7518C29.7662 66.5955 28.3065 66.912 27.0533 67.6539L22.5489 60.0473C19.4331 55.1026 15.7754 49.9548 15.7754 49.9548L31.219 31.1922C31.219 31.1922 36.7056 34.5789 41.2438 37.1528C43.4791 38.4398 47.34 40.1332 50.2526 41.4879C45.6466 44.9424 41.7857 48.2614 42.9372 50.5644C44.9892 52.0375 47.4416 52.85 49.9673 52.8935C52.4929 52.9371 54.9719 52.2097 57.0735 50.8082C59.7682 49.0168 62.9345 48.0667 66.1703 48.0785C68.5207 48.0785 70.756 48.5662 72.7812 49.4535C76.5338 51.9868 83.4427 58.2184 89.7421 62.1471C97.6671 67.9045 99.225 71.63 97.3284 73.5266V73.5333Z" fill="url(#paint0_linear_35_1338)"/>
<defs>
<linearGradient id="paint0_linear_35_1338" x1="63.7183" y1="25.7124" x2="63.7183" y2="100.234" gradientUnits="userSpaceOnUse">
<stop stop-color="#FDC103"/>
<stop offset="0.425" stop-color="#FBE295"/>
<stop offset="0.75" stop-color="#FBDD7F"/>
<stop offset="1" stop-color="#FBCC36"/>
</linearGradient>
</defs>
</svg>
