<svg width="380" height="73" viewBox="0 0 380 73" fill="none" xmlns="http://www.w3.org/2000/svg">
<path fill-rule="evenodd" clip-rule="evenodd" d="M11.4237 0.139608C11.2618 0.242288 11.2057 1.00494 11.1989 3.1939C11.1938 4.7986 11.1967 6.24316 11.2052 6.40414C11.2198 6.68119 12.6833 6.69895 38.734 6.73915L66.2473 6.78153L66.3321 66.3306L6.78165 66.2459L6.73927 39.2104C6.70845 19.5665 6.64563 12.113 6.50945 11.9489C6.25517 11.6427 0.50258 11.6199 0.198552 11.9239C0.043606 12.0789 -0.00178915 19.066 5.34519e-05 42.368C0.00156103 59.0016 0.0625344 72.7056 0.135903 72.8208C0.241936 72.988 7.64734 73.022 36.6083 72.9883L72.9477 72.9461L72.9899 36.6988C73.021 10.045 72.9823 0.391536 72.8438 0.224533C72.6865 0.0350844 67.6149 -0.00193426 42.1475 7.58066e-05C25.3679 0.00158335 11.5424 0.0642303 11.4237 0.139608Z" fill="white"/>
<path d="M11.8857 11.4507H61.3865V60.963H11.8857V11.4507Z" fill="#FDC103"/>
<path d="M0.721442 1.18374H7.31259V7.77642H0.721442V1.18374Z" fill="#FDC103"/>
<path d="M136.772 57H129.483V33.2416L116.658 55.8037C116.343 56.3787 115.898 56.8145 115.323 57.1113C114.767 57.408 114.164 57.5564 113.515 57.5564C112.884 57.5564 112.291 57.408 111.734 57.1113C111.196 56.8145 110.77 56.3787 110.454 55.8037L97.5737 33.2416V57H90.3405V20.194C90.3405 19.3594 90.5816 18.6175 91.0638 17.9684C91.5646 17.3192 92.2137 16.8834 93.0112 16.6608C93.4007 16.5681 93.7902 16.5403 94.1797 16.5774C94.5691 16.5959 94.9401 16.6794 95.2925 16.8277C95.6634 16.9576 95.9972 17.1523 96.294 17.412C96.5907 17.6531 96.8411 17.9498 97.0451 18.3022L113.515 46.9291L129.984 18.3022C130.411 17.5974 130.995 17.0967 131.737 16.7999C132.497 16.5032 133.285 16.4568 134.102 16.6608C134.88 16.8834 135.52 17.3192 136.021 17.9684C136.522 18.6175 136.772 19.3594 136.772 20.194V57ZM151.739 20.7504H144.506V14.2127H151.739V20.7504ZM151.739 57H144.506V26.9265H151.739V57ZM192.023 57H184.79V40.3079C184.79 39.362 184.623 38.5182 184.289 37.7763C183.974 37.0159 183.538 36.3667 182.981 35.8289C182.425 35.291 181.767 34.883 181.006 34.6048C180.264 34.3081 179.458 34.1597 178.586 34.1597H165.928V57H158.695V30.5152C158.695 30.0145 158.787 29.5508 158.973 29.1242C159.158 28.6791 159.418 28.2989 159.752 27.9836C160.086 27.6498 160.475 27.3901 160.92 27.2047C161.365 27.0192 161.838 26.9265 162.339 26.9265H178.642C179.55 26.9265 180.505 27.0285 181.507 27.2325C182.527 27.4365 183.529 27.7703 184.512 28.234C185.513 28.6791 186.459 29.2541 187.349 29.9588C188.258 30.6451 189.056 31.489 189.742 32.4905C190.447 33.4735 191.003 34.6141 191.411 35.9124C191.819 37.2106 192.023 38.6758 192.023 40.3079V57ZM231.361 46.8457C231.361 48.0883 231.203 49.2104 230.888 50.2119C230.572 51.1949 230.155 52.0666 229.636 52.827C229.117 53.5689 228.514 54.2087 227.828 54.7466C227.141 55.2659 226.418 55.6925 225.658 56.0263C224.916 56.3601 224.155 56.6105 223.376 56.7774C222.616 56.9258 221.893 57 221.206 57H208.159C206.916 57 205.803 56.8424 204.82 56.5271C203.837 56.2118 202.966 55.7945 202.205 55.2752C201.463 54.7373 200.823 54.1253 200.286 53.439C199.766 52.7528 199.34 52.0387 199.006 51.2969C198.672 50.5365 198.422 49.776 198.255 49.0156C198.106 48.2367 198.032 47.5133 198.032 46.8457V37.053C198.032 35.1983 198.366 33.6311 199.034 32.3514C199.72 31.0531 200.564 30.0052 201.565 29.2077C202.585 28.3916 203.689 27.8074 204.876 27.455C206.063 27.1026 207.157 26.9265 208.159 26.9265H221.206V34.1597H208.214C207.25 34.1597 206.517 34.4101 206.017 34.9108C205.516 35.393 205.265 36.1071 205.265 37.053V46.79C205.265 47.773 205.506 48.5149 205.989 49.0156C206.489 49.5164 207.213 49.7668 208.159 49.7668H221.206C222.189 49.7668 222.922 49.5164 223.404 49.0156C223.886 48.5149 224.127 47.7915 224.127 46.8457V14.2127H231.361V46.8457Z" fill="#FAFAFA"/>
<path d="M274.788 57H248.693C248.025 57 247.302 56.9258 246.523 56.7774C245.762 56.6105 245.002 56.3601 244.241 56.0263C243.5 55.6925 242.785 55.2659 242.099 54.7466C241.413 54.2087 240.801 53.5689 240.263 52.827C239.744 52.0666 239.326 51.1949 239.011 50.2119C238.696 49.2104 238.538 48.0883 238.538 46.8457V27.2603C238.538 26.5926 238.612 25.8786 238.761 25.1181C238.928 24.3392 239.178 23.5788 239.512 22.8369C239.846 22.0765 240.282 21.3532 240.82 20.6669C241.357 19.9807 241.997 19.3779 242.739 18.8586C243.5 18.3208 244.371 17.8942 245.354 17.5789C246.337 17.2636 247.45 17.106 248.693 17.106H274.788V24.3392H248.693C247.747 24.3392 247.023 24.5896 246.523 25.0903C246.022 25.5911 245.771 26.333 245.771 27.3159V46.8457C245.771 47.773 246.022 48.4963 246.523 49.0156C247.042 49.5164 247.765 49.7668 248.693 49.7668H274.788V57ZM306.976 34.1597H290.701C289.718 34.1597 288.976 34.4101 288.475 34.9108C287.975 35.393 287.724 36.1071 287.724 37.053V57H280.491V37.053C280.491 35.8103 280.649 34.6975 280.964 33.7146C281.279 32.7316 281.697 31.8692 282.216 31.1273C282.754 30.3669 283.366 29.727 284.052 29.2077C284.738 28.6698 285.452 28.234 286.194 27.9002C286.955 27.5663 287.715 27.3252 288.475 27.1768C289.254 27.0099 289.978 26.9265 290.645 26.9265H306.976V34.1597ZM344.004 36.8861C344.004 37.8876 343.828 38.9726 343.476 40.141C343.123 41.2909 342.548 42.3666 341.751 43.3681C340.972 44.3511 339.943 45.1764 338.663 45.8441C337.402 46.5118 335.862 46.8457 334.045 46.8457H320.997V39.9741H334.045C335.028 39.9741 335.788 39.6773 336.326 39.0838C336.864 38.4718 337.133 37.7207 337.133 36.8304C337.133 35.8845 336.827 35.1427 336.215 34.6048C335.621 34.0669 334.898 33.798 334.045 33.798H320.997C320.014 33.798 319.254 34.104 318.716 34.7161C318.178 35.3096 317.909 36.0515 317.909 36.9417V47.0404C317.909 48.0048 318.206 48.756 318.799 49.2938C319.411 49.8317 320.162 50.1006 321.053 50.1006H334.045V57H320.997C319.996 57 318.911 56.8238 317.742 56.4714C316.592 56.119 315.517 55.5534 314.515 54.7744C313.532 53.9769 312.707 52.9475 312.039 51.6864C311.371 50.4066 311.037 48.858 311.037 47.0404V36.8861C311.037 35.8845 311.214 34.8088 311.566 33.6589C311.918 32.4905 312.484 31.4148 313.263 30.4318C314.061 29.4303 315.09 28.5957 316.351 27.928C317.631 27.2603 319.179 26.9265 320.997 26.9265H334.045C335.046 26.9265 336.122 27.1026 337.272 27.455C338.44 27.8074 339.516 28.3824 340.499 29.1799C341.501 29.9588 342.335 30.9882 343.003 32.2679C343.67 33.5291 344.004 35.0685 344.004 36.8861ZM377.945 46.8457C377.945 48.0883 377.787 49.2104 377.472 50.2119C377.157 51.1949 376.739 52.0666 376.22 52.827C375.701 53.5689 375.098 54.2087 374.412 54.7466C373.725 55.2659 373.002 55.6925 372.242 56.0263C371.5 56.3601 370.739 56.6105 369.96 56.7774C369.2 56.9258 368.477 57 367.791 57H348.205V49.7668H367.735C368.718 49.7668 369.46 49.5164 369.96 49.0156C370.461 48.5149 370.712 47.7915 370.712 46.8457C370.619 44.9168 369.645 43.9524 367.791 43.9524H356.579C354.984 43.9524 353.63 43.6742 352.517 43.1178C351.404 42.5614 350.496 41.8659 349.791 41.0313C349.105 40.1966 348.604 39.2971 348.289 38.3327C347.992 37.3683 347.844 36.4688 347.844 35.6341C347.844 34.0206 348.131 32.6667 348.706 31.5724C349.281 30.4596 350.004 29.5601 350.876 28.8739C351.748 28.1876 352.693 27.6961 353.714 27.3994C354.734 27.0841 355.689 26.9265 356.579 26.9265H374.356V34.1597H356.635C356.264 34.1597 355.967 34.2061 355.744 34.2988C355.54 34.373 355.383 34.4843 355.271 34.6326C355.179 34.7625 355.123 34.9108 355.105 35.0777C355.086 35.2261 355.077 35.3745 355.077 35.5229C355.095 35.8196 355.151 36.0515 355.244 36.2184C355.336 36.3853 355.448 36.5058 355.577 36.58C355.726 36.6542 355.884 36.7006 356.05 36.7191C356.236 36.7191 356.412 36.7191 356.579 36.7191H367.791C369.645 36.7191 371.222 37.053 372.52 37.7207C373.818 38.3883 374.866 39.2322 375.664 40.2523C376.461 41.2538 377.036 42.3481 377.388 43.5351C377.759 44.7221 377.945 45.8256 377.945 46.8457Z" fill="#FDC103"/>
</svg>
