<svg width="126" height="126" viewBox="0 0 126 126" fill="none" xmlns="http://www.w3.org/2000/svg">
<path d="M63.1132 8.78564C52.3958 8.78564 41.9191 11.9637 33.008 17.918C24.0968 23.8722 17.1514 32.3352 13.05 42.2368C8.94865 52.1384 7.87555 63.0338 9.9664 73.5452C12.0573 84.0566 17.2182 93.712 24.7965 101.29C32.3748 108.869 42.0302 114.03 52.5416 116.12C63.0531 118.211 73.9485 117.138 83.8501 113.037C93.7516 108.935 102.215 101.99 108.169 93.0789C114.123 84.1677 117.301 73.691 117.301 62.9736C117.301 48.6021 111.592 34.8192 101.43 24.6569C91.2677 14.4947 77.4848 8.78564 63.1132 8.78564ZM63.1132 110.388C53.7355 110.388 44.5684 107.607 36.7711 102.397C28.9738 97.1874 22.8966 89.7823 19.3079 81.1184C15.7192 72.4545 14.7803 62.921 16.6098 53.7235C18.4393 44.526 22.955 36.0776 29.5861 29.4465C36.2171 22.8155 44.6656 18.2997 53.8631 16.4702C63.0606 14.6407 72.5941 15.5797 81.2579 19.1684C89.9218 22.7571 97.327 28.8343 102.537 36.6316C107.747 44.4288 110.528 53.5959 110.528 62.9736C110.528 75.5488 105.532 87.6088 96.6403 96.5008C87.7484 105.393 75.6883 110.388 63.1132 110.388Z" fill="url(#paint0_linear_35_1330)"/>
<path d="M66.229 64.3283V38.4197C66.229 37.5215 65.8722 36.6601 65.2371 36.0249C64.6019 35.3898 63.7405 35.033 62.8423 35.033C61.944 35.033 61.0826 35.3898 60.4475 36.0249C59.8123 36.6601 59.4555 37.5215 59.4555 38.4197V67.9522L79.4373 81.4992C79.8054 81.776 80.2261 81.9749 80.6737 82.0836C81.1212 82.1923 81.5862 82.2086 82.0403 82.1315C82.4944 82.0543 82.9279 81.8854 83.3145 81.635C83.701 81.3846 84.0324 81.058 84.2885 80.6751C84.5445 80.2922 84.7197 79.8612 84.8034 79.4083C84.8872 78.9554 84.8776 78.4902 84.7754 78.0411C84.6732 77.592 84.4805 77.1685 84.2091 76.7964C83.9376 76.4243 83.5931 76.1115 83.1966 75.8772L66.229 64.3283Z" fill="url(#paint1_linear_35_1330)"/>
<path d="M29.2457 62.7704C29.2147 56.6778 30.8378 50.691 33.9419 45.4483C37.0459 40.2056 41.5146 35.9036 46.8715 33.0009C52.2283 30.0983 58.2725 28.7038 64.3596 28.9663C70.4466 29.2287 76.3483 31.1382 81.4355 34.4911L84.3142 29.8851C79.4821 26.7198 74.009 24.6641 68.2879 23.8655C62.5669 23.0669 56.74 23.5452 51.2258 25.2662C45.7116 26.9872 40.6471 29.9081 36.3959 33.8191C32.1448 37.7301 28.8126 42.5341 26.6387 47.8859C24.4648 53.2378 23.5032 59.0047 23.823 64.7723C24.1428 70.54 25.736 76.1652 28.4882 81.2439C31.2404 86.3227 35.0833 90.7288 39.7407 94.1458C44.3982 97.5629 49.7546 99.906 55.4253 101.007L56.3397 95.8251C48.7127 94.2683 41.8548 90.1317 36.9201 84.1114C31.9854 78.0911 29.2753 70.5547 29.2457 62.7704Z" fill="url(#paint2_linear_35_1330)"/>
<defs>
<linearGradient id="paint0_linear_35_1330" x1="63.1132" y1="8.78564" x2="63.1132" y2="117.162" gradientUnits="userSpaceOnUse">
<stop stop-color="#FDC103"/>
<stop offset="0.425" stop-color="#FBE295"/>
<stop offset="0.75" stop-color="#FBDD7F"/>
<stop offset="1" stop-color="#FBCC36"/>
</linearGradient>
<linearGradient id="paint1_linear_35_1330" x1="63.1132" y1="8.78564" x2="63.1132" y2="117.162" gradientUnits="userSpaceOnUse">
<stop stop-color="#FDC103"/>
<stop offset="0.425" stop-color="#FBE295"/>
<stop offset="0.75" stop-color="#FBDD7F"/>
<stop offset="1" stop-color="#FBCC36"/>
</linearGradient>
<linearGradient id="paint2_linear_35_1330" x1="63.1132" y1="8.78564" x2="63.1132" y2="117.162" gradientUnits="userSpaceOnUse">
<stop stop-color="#FDC103"/>
<stop offset="0.425" stop-color="#FBE295"/>
<stop offset="0.75" stop-color="#FBDD7F"/>
<stop offset="1" stop-color="#FBCC36"/>
</linearGradient>
</defs>
</svg>
