<svg width="26" height="26" viewBox="0 0 26 26" fill="none" xmlns="http://www.w3.org/2000/svg">
<path d="M1.0133 8.91334H6.18404V25.5505H1.0133V8.91334ZM3.6001 0.633301C4.19316 0.633301 4.77289 0.8092 5.26596 1.13874C5.75903 1.46829 6.14329 1.93667 6.37011 2.48464C6.59693 3.03261 6.65614 3.63555 6.54023 4.21717C6.42432 4.79879 6.13851 5.33297 5.71895 5.75212C5.2994 6.17128 4.76495 6.45658 4.18321 6.57194C3.60148 6.68729 2.99861 6.62751 2.45085 6.40017C1.9031 6.17282 1.43508 5.78812 1.10601 5.29474C0.776933 4.80135 0.601587 4.22145 0.602151 3.62839C0.602908 2.83378 0.919096 2.07198 1.48124 1.51037C2.04338 0.948762 2.80549 0.6333 3.6001 0.633301ZM9.42753 8.91334H14.3841V11.1975H14.4527C15.1436 9.88982 16.8282 8.51076 19.3436 8.51076C24.58 8.49934 25.5508 11.9455 25.5508 16.4139V25.5505H20.38V17.4561C20.38 15.5288 20.3458 13.0477 17.6933 13.0477C15.0408 13.0477 14.5897 15.1491 14.5897 17.3304V25.5505H9.42753V8.91334Z" fill="white"/>
</svg>
