<svg width="127" height="128" viewBox="0 0 127 128" fill="none" xmlns="http://www.w3.org/2000/svg">
<path d="M91.8278 31.9075L75.4218 8.90601L15.0976 57.0972L11.7534 57.0611V57.1127H9.12143V119.042H117.497V57.1127H112.533L102.655 28.2176L91.8278 31.9075ZM101.628 57.1127H49.876L88.4217 43.9734L96.2764 41.4601L101.628 57.1127ZM81.6302 35.3859L41.8407 48.9484L73.3523 23.7742L81.6302 35.3859ZM19.443 99.271V76.8733C21.6203 76.1017 23.5979 74.854 25.2318 73.221C26.8656 71.5881 28.1144 69.6111 28.8872 67.4342H97.7317C98.5042 69.6119 99.7528 71.5897 101.387 73.2235C103.02 74.8574 104.998 76.106 107.176 76.8784V99.2761C104.998 100.049 103.02 101.297 101.387 102.931C99.7528 104.565 98.5042 106.543 97.7317 108.72H28.8975C28.1243 106.541 26.8743 104.561 25.2386 102.927C23.6029 101.292 21.6229 100.043 19.443 99.271Z" fill="url(#paint0_linear_35_1334)"/>
<path d="M63.3098 74.9216C60.0849 74.9216 56.992 76.2207 54.7117 78.5329C52.4313 80.8452 51.1502 83.9813 51.1502 87.2514C51.1502 90.5214 52.4313 93.6576 54.7117 95.9698C56.992 98.2821 60.0849 99.5811 63.3098 99.5811C66.5347 99.5811 69.6275 98.2821 71.9079 95.9698C74.1882 93.6576 75.4693 90.5214 75.4693 87.2514C75.4693 83.9813 74.1882 80.8452 71.9079 78.5329C69.6275 76.2207 66.5347 74.9216 63.3098 74.9216ZM58.0985 87.2514C58.0985 85.8499 58.6476 84.5059 59.6249 83.5149C60.6022 82.5239 61.9277 81.9672 63.3098 81.9672C64.6919 81.9672 66.0174 82.5239 66.9947 83.5149C67.972 84.5059 68.521 85.8499 68.521 87.2514C68.521 88.6528 67.972 89.9969 66.9947 90.9879C66.0174 91.9788 64.6919 92.5356 63.3098 92.5356C61.9277 92.5356 60.6022 91.9788 59.6249 90.9879C58.6476 89.9969 58.0985 88.6528 58.0985 87.2514Z" fill="url(#paint1_linear_35_1334)"/>
<defs>
<linearGradient id="paint0_linear_35_1334" x1="63.3094" y1="8.90601" x2="63.3094" y2="119.042" gradientUnits="userSpaceOnUse">
<stop stop-color="#FDC103"/>
<stop offset="0.425" stop-color="#FBE295"/>
<stop offset="0.75" stop-color="#FBDD7F"/>
<stop offset="1" stop-color="#FBCC36"/>
</linearGradient>
<linearGradient id="paint1_linear_35_1334" x1="63.3098" y1="74.9216" x2="63.3098" y2="99.5811" gradientUnits="userSpaceOnUse">
<stop stop-color="#FDC103"/>
<stop offset="0.425" stop-color="#FBE295"/>
<stop offset="0.75" stop-color="#FBDD7F"/>
<stop offset="1" stop-color="#FBCC36"/>
</linearGradient>
</defs>
</svg>
