<svg width="261" height="51" viewBox="0 0 261 51" fill="none" xmlns="http://www.w3.org/2000/svg">
<path fill-rule="evenodd" clip-rule="evenodd" d="M7.82442 0.595622C7.71359 0.665951 7.67516 1.18831 7.67045 2.6876C7.66701 3.78671 7.66896 4.77614 7.67481 4.88639C7.68479 5.07616 8.68721 5.08832 26.5301 5.11585L45.3749 5.14488L45.4329 45.9319L4.64497 45.8739L4.61594 27.3564C4.59483 13.9017 4.5518 8.79661 4.45853 8.68417C4.28436 8.47445 0.344233 8.45884 0.135994 8.66708C0.0298671 8.7732 -0.00122544 13.5589 3.66109e-05 29.5192C0.0010692 40.9121 0.0428318 50.2983 0.0930845 50.3773C0.16571 50.4918 5.2379 50.515 25.0742 50.492L49.9642 50.4631L49.9931 25.6362C50.0144 7.38016 49.9879 0.768175 49.893 0.65379C49.7853 0.52403 46.3115 0.498675 28.8681 0.500052C17.3753 0.501084 7.90577 0.543993 7.82442 0.595622Z" fill="black"/>
<path d="M8.14092 8.34293H42.0456V42.2554H8.14092V8.34293Z" fill="#FDC103"/>
<path d="M0.494139 1.31078H5.00862V5.82631H0.494139V1.31078Z" fill="#FDC103"/>
<path d="M93.6799 39.5H88.6875V23.2271L79.9032 38.6806C79.6872 39.0744 79.3824 39.373 78.9886 39.5762C78.6075 39.7795 78.1946 39.8811 77.75 39.8811C77.3181 39.8811 76.9116 39.7795 76.5305 39.5762C76.1621 39.373 75.8699 39.0744 75.654 38.6806L66.8316 23.2271V39.5H61.8773V14.2904C61.8773 13.7188 62.0424 13.2106 62.3727 12.766C62.7157 12.3214 63.1603 12.0229 63.7066 11.8704C63.9733 11.8069 64.2401 11.7879 64.5069 11.8133C64.7736 11.826 65.0277 11.8831 65.2691 11.9848C65.5231 12.0737 65.7518 12.2071 65.955 12.3849C66.1583 12.5501 66.3298 12.7533 66.4695 12.9947L77.75 32.6021L89.0305 12.9947C89.3227 12.5119 89.7228 12.169 90.2309 11.9657C90.7518 11.7625 91.2917 11.7307 91.8506 11.8704C92.3841 12.0229 92.8224 12.3214 93.1654 12.766C93.5084 13.2106 93.6799 13.7188 93.6799 14.2904V39.5ZM103.931 14.6715H98.9771V10.1936H103.931V14.6715ZM103.931 39.5H98.9771V18.9017H103.931V39.5ZM131.523 39.5H126.569V28.0671C126.569 27.4192 126.454 26.8412 126.226 26.3331C126.01 25.8122 125.711 25.3676 125.33 24.9992C124.949 24.6308 124.498 24.3514 123.977 24.1608C123.469 23.9576 122.916 23.8559 122.319 23.8559H113.649V39.5H108.695V21.3598C108.695 21.0168 108.759 20.6992 108.886 20.407C109.013 20.1021 109.191 19.8417 109.419 19.6258C109.648 19.3971 109.915 19.2193 110.22 19.0922C110.524 18.9652 110.848 18.9017 111.191 18.9017H122.357C122.98 18.9017 123.634 18.9715 124.32 19.1113C125.019 19.251 125.705 19.4797 126.378 19.7973C127.064 20.1021 127.712 20.4959 128.322 20.9787C128.944 21.4487 129.49 22.0267 129.96 22.7127C130.443 23.3859 130.824 24.1672 131.104 25.0564C131.383 25.9456 131.523 26.9492 131.523 28.0671V39.5ZM158.466 32.545C158.466 33.3961 158.358 34.1646 158.143 34.8506C157.927 35.5239 157.641 36.1209 157.285 36.6418C156.929 37.1499 156.517 37.5882 156.046 37.9566C155.576 38.3122 155.081 38.6044 154.56 38.8331C154.052 39.0617 153.531 39.2332 152.998 39.3476C152.477 39.4492 151.981 39.5 151.511 39.5H142.575C141.724 39.5 140.961 39.392 140.288 39.1761C139.615 38.9601 139.018 38.6743 138.497 38.3186C137.989 37.9502 137.551 37.531 137.182 37.061C136.826 36.591 136.534 36.1019 136.306 35.5938C136.077 35.0729 135.905 34.5521 135.791 34.0313C135.69 33.4977 135.639 33.0023 135.639 32.545V25.8377C135.639 24.5673 135.867 23.4939 136.325 22.6174C136.795 21.7282 137.373 21.0104 138.059 20.4642C138.757 19.9052 139.513 19.5051 140.326 19.2637C141.139 19.0224 141.889 18.9017 142.575 18.9017H151.511V23.8559H142.613C141.952 23.8559 141.45 24.0274 141.107 24.3704C140.764 24.7007 140.593 25.1898 140.593 25.8377V32.5069C140.593 33.1801 140.758 33.6883 141.088 34.0313C141.431 34.3742 141.927 34.5457 142.575 34.5457H151.511C152.185 34.5457 152.686 34.3742 153.017 34.0313C153.347 33.6883 153.512 33.1928 153.512 32.545V10.1936H158.466V32.545Z" fill="black"/>
<path d="M188.211 39.5H170.338C169.88 39.5 169.385 39.4492 168.851 39.3476C168.331 39.2332 167.81 39.0617 167.289 38.8331C166.781 38.6044 166.292 38.3122 165.822 37.9566C165.352 37.5882 164.932 37.1499 164.564 36.6418C164.208 36.1209 163.923 35.5239 163.707 34.8506C163.491 34.1646 163.383 33.3961 163.383 32.545V19.1303C163.383 18.673 163.433 18.1839 163.535 17.6631C163.649 17.1296 163.821 16.6087 164.05 16.1006C164.278 15.5798 164.577 15.0844 164.945 14.6143C165.314 14.1443 165.752 13.7315 166.26 13.3758C166.781 13.0074 167.378 12.7152 168.051 12.4992C168.724 12.2833 169.487 12.1753 170.338 12.1753H188.211V17.1296H170.338C169.69 17.1296 169.194 17.3011 168.851 17.6441C168.508 17.987 168.337 18.4952 168.337 19.1684V32.545C168.337 33.1801 168.508 33.6756 168.851 34.0313C169.207 34.3742 169.702 34.5457 170.338 34.5457H188.211V39.5ZM210.258 23.8559H199.111C198.437 23.8559 197.929 24.0274 197.586 24.3704C197.243 24.7007 197.072 25.1898 197.072 25.8377V39.5H192.117V25.8377C192.117 24.9865 192.225 24.2243 192.441 23.5511C192.657 22.8778 192.943 22.2871 193.299 21.779C193.667 21.2581 194.086 20.8199 194.556 20.4642C195.026 20.0958 195.515 19.7973 196.024 19.5686C196.544 19.3399 197.065 19.1748 197.586 19.0732C198.12 18.9588 198.615 18.9017 199.072 18.9017H210.258V23.8559ZM235.62 25.7233C235.62 26.4093 235.499 27.1524 235.258 27.9527C235.016 28.7403 234.622 29.4771 234.076 30.1631C233.543 30.8364 232.838 31.4017 231.961 31.859C231.097 32.3163 230.043 32.545 228.798 32.545H219.861V27.8384H228.798C229.471 27.8384 229.992 27.6352 230.361 27.2287C230.729 26.8095 230.913 26.295 230.913 25.6852C230.913 25.0373 230.703 24.5292 230.284 24.1608C229.878 23.7924 229.382 23.6082 228.798 23.6082H219.861C219.188 23.6082 218.667 23.8178 218.299 24.237C217.93 24.6435 217.746 25.1517 217.746 25.7614V32.6784C217.746 33.3389 217.949 33.8534 218.356 34.2218C218.775 34.5902 219.29 34.7744 219.899 34.7744H228.798V39.5H219.861C219.175 39.5 218.432 39.3793 217.632 39.138C216.844 38.8966 216.107 38.5091 215.421 37.9756C214.748 37.4294 214.183 36.7243 213.726 35.8605C213.268 34.984 213.04 33.9233 213.04 32.6784V25.7233C213.04 25.0373 213.16 24.3006 213.402 23.513C213.643 22.7127 214.03 21.9759 214.564 21.3026C215.11 20.6166 215.815 20.045 216.679 19.5877C217.556 19.1303 218.616 18.9017 219.861 18.9017H228.798C229.484 18.9017 230.221 19.0224 231.008 19.2637C231.809 19.5051 232.545 19.8989 233.219 20.4451C233.905 20.9787 234.476 21.6837 234.934 22.5602C235.391 23.424 235.62 24.4784 235.62 25.7233ZM258.867 32.545C258.867 33.3961 258.759 34.1646 258.543 34.8506C258.327 35.5239 258.041 36.1209 257.685 36.6418C257.33 37.1499 256.917 37.5882 256.447 37.9566C255.977 38.3122 255.481 38.6044 254.96 38.8331C254.452 39.0617 253.931 39.2332 253.398 39.3476C252.877 39.4492 252.382 39.5 251.912 39.5H238.497V34.5457H251.873C252.547 34.5457 253.055 34.3742 253.398 34.0313C253.741 33.6883 253.912 33.1928 253.912 32.545C253.849 31.2238 253.182 30.5633 251.912 30.5633H244.232C243.14 30.5633 242.213 30.3727 241.45 29.9916C240.688 29.6105 240.066 29.1341 239.583 28.5625C239.113 27.9909 238.77 27.3747 238.554 26.7142C238.351 26.0536 238.249 25.4375 238.249 24.8659C238.249 23.7607 238.446 22.8333 238.84 22.0838C239.234 21.3216 239.729 20.7055 240.326 20.2355C240.923 19.7655 241.571 19.4289 242.27 19.2256C242.968 19.0097 243.623 18.9017 244.232 18.9017H256.409V23.8559H244.271C244.017 23.8559 243.813 23.8877 243.661 23.9512C243.521 24.002 243.413 24.0783 243.337 24.1799C243.273 24.2688 243.235 24.3704 243.223 24.4848C243.21 24.5864 243.203 24.688 243.203 24.7896C243.216 24.9929 243.254 25.1517 243.318 25.266C243.381 25.3803 243.458 25.4629 243.546 25.5137C243.648 25.5645 243.756 25.5963 243.87 25.609C243.997 25.609 244.118 25.609 244.232 25.609H251.912C253.182 25.609 254.262 25.8377 255.151 26.295C256.04 26.7523 256.758 27.3303 257.304 28.029C257.85 28.7149 258.244 29.4644 258.486 30.2774C258.74 31.0904 258.867 31.8463 258.867 32.545Z" fill="#FDC103"/>
</svg>
